<?xml version="1.0" encoding="UTF-8" standalone="no"?>
<!-- Created with Inkscape (http://www.inkscape.org/) -->

<svg
   version="1.1"
   id="svg1"
   width="500"
   height="500"
   viewBox="0 0 500 500"
   sodipodi:docname="icon.svg"
   inkscape:version="1.4.4 (dcaf3e7, 2026-05-05)"
   xmlns:inkscape="http://www.inkscape.org/namespaces/inkscape"
   xmlns:sodipodi="http://sodipodi.sourceforge.net/DTD/sodipodi-0.dtd"
   xmlns="http://www.w3.org/2000/svg"
   xmlns:svg="http://www.w3.org/2000/svg">
  <defs
     id="defs1" />
  <sodipodi:namedview
     id="namedview1"
     pagecolor="#ffffff"
     bordercolor="#000000"
     borderopacity="0.25"
     inkscape:showpageshadow="2"
     inkscape:pageopacity="0.0"
     inkscape:pagecheckerboard="0"
     inkscape:deskcolor="#d1d1d1"
     showgrid="false"
     inkscape:zoom="1.0319602"
     inkscape:cx="10.659326"
     inkscape:cy="302.82176"
     inkscape:window-width="1920"
     inkscape:window-height="974"
     inkscape:window-x="-11"
     inkscape:window-y="-11"
     inkscape:window-maximized="1"
     inkscape:current-layer="g1" />
  <g
     inkscape:groupmode="layer"
     inkscape:label="Image"
     id="g1">
    <circle
       style="fill:#424247;fill-opacity:1"
       id="path4"
       r="239"
       cy="250"
       cx="250"
       inkscape:label="path4" />
    <path
       style="fill:#ededff;stroke-width:0.769;stroke-dasharray:none;fill-opacity:1"
       d="m 256.52284,453.97209 c -2.50876,-6.53765 -2.41017,-16.81572 0.21817,-22.75757 2.25576,-5.09962 9.75129,-12.05972 16.66761,-15.47718 7.16124,-3.53841 18.0921,-6.29703 29.03255,-7.32693 23.42599,-2.20526 31.12884,-3.65535 41.71356,-7.85278 20.9276,-8.29896 35.20848,-23.86559 40.35452,-43.98784 4.87902,-19.07826 -2.63665,-39.47624 -18.44699,-50.06597 -5.48776,-3.67572 -14.05742,-7.32523 -14.99629,-6.38639 -0.24231,0.24232 -0.63632,1.64681 -0.87558,3.1211 l -0.43501,2.68053 6.78166,3.28251 c 25.92462,12.5482 30.1949,45.40753 8.90801,68.54579 -7.83355,8.51489 -17.01195,14.27915 -28.50463,17.90157 -9.51498,2.99907 -11.92731,3.43454 -28.22119,5.09426 -18.77204,1.91215 -26.54272,3.48087 -34.92735,7.05109 l -3.46046,1.47349 3.84496,-3.96287 c 4.88331,-5.03305 23.92906,-21.69515 29.99072,-26.23726 16.2915,-12.20755 29.3007,-16.60277 51.69985,-17.46701 14.40901,-0.55593 14.67043,-0.6412 16.21276,-5.28582 l 0.82773,-2.49272 -12.83841,0.44797 c -18.86924,0.65839 -30.21749,2.73452 -39.56083,7.23755 -1.58605,0.76439 -2.88372,1.30615 -2.88372,1.20394 0,-0.10223 2.26752,-3.57731 5.03898,-7.72239 11.29689,-16.89601 16.96521,-33.20667 18.89976,-54.38428 3.13949,-34.36829 -11.16969,-76.95777 -34.22095,-101.85407 -4.22954,-4.5681 -5.52222,-6.6419 -7.70408,-12.35921 -7.83633,-20.5348 -20.11277,-39.14363 -35.85144,-54.34443 -6.91994,-6.68343 -8.79597,-8.12774 -9.32641,-7.17998 -0.36513,0.65254 -1.71317,4.3972 -2.99556,8.32148 -2.57926,7.89272 -4.22606,16.81045 -4.99091,27.02646 -0.49599,6.62462 -0.53544,6.72968 -2.54952,6.79348 -1.12511,0.0357 -4.81404,0.64913 -8.19761,1.36329 l -6.15194,1.29847 -5.4241,-5.06251 c -2.98323,-2.78436 -8.51998,-7.20497 -12.30387,-9.82355 -8.0299,-5.55695 -13.09639,-10.19364 -20.38503,-18.65576 l -5.26991,-6.11837 -0.76637,2.89471 c -3.93442,14.86106 -2.95492,35.97654 2.3488,50.6341 l 2.42839,6.71116 2.17077,-2.6175 c 1.19391,-1.43963 2.18007,-2.97149 2.19145,-3.40413 0.0114,-0.43266 -0.87217,-4.23917 -1.96346,-8.45893 -1.9989,-7.72937 -3.4626,-25.5402 -2.33942,-28.46716 0.42326,-1.10301 1.16383,-0.69919 4.52951,2.46995 2.21294,2.0837 8.17608,6.93177 13.25143,10.77345 10.01945,7.58406 14.41463,11.77571 12.91686,12.31865 -2.56075,0.92822 -13.54661,8.04473 -17.0486,11.04385 -7.72706,6.6175 -15.4886,18.48807 -18.13958,27.74283 -0.683,2.38438 -1.71983,9.47834 -2.30408,15.76435 -0.62494,6.72389 -1.59692,12.68834 -2.36096,14.48778 -3.3426,7.87236 -11.37592,16.46115 -23.31229,24.92424 -4.34812,3.08288 -8.27927,6.42518 -8.73587,7.42732 -3.2177,7.06208 11.11924,22.6222 26.0344,28.25555 3.88691,1.46806 5.95874,1.69254 15.26328,1.65376 7.61733,-0.0316 12.14776,-0.42533 15.49086,-1.34574 8.19437,-2.25606 12.91506,-1.23866 15.25587,3.28793 4.08566,7.90087 -1.60265,17.81938 -15.5812,27.16838 -24.17456,16.16817 -52.30785,23.62726 -77.11518,20.44583 -8.98039,-1.15167 -8.90679,-1.08881 -7.70005,-6.57759 2.3596,-10.73244 9.50222,-19.77201 19.24578,-24.35709 12.34643,-5.80994 29.23711,-2.34851 44.48756,9.11695 l 4.84954,3.64593 2.64815,-1.42612 c 1.45647,-0.78437 2.64813,-1.79322 2.64813,-2.2419 0,-0.92277 -4.83005,-5.06929 -9.9969,-8.58218 -1.90326,-1.294 -11.59257,-6.40878 -21.5318,-11.36617 -9.93923,-4.95739 -22.05087,-11.65108 -26.91474,-14.87488 -9.66036,-6.40292 -20.31358,-16.14252 -26.23204,-23.98239 -5.33538,-7.06747 -11.804791,-20.52619 -14.236238,-29.61653 -2.767721,-10.34755 -2.929155,-25.61851 -0.440025,-41.62543 0.929313,-5.97616 1.683647,-12.37802 1.676304,-14.22638 -0.03014,-7.59425 -3.804292,-19.1762 -8.217327,-25.21715 l -1.360749,-1.86271 2.680979,0.52917 c 4.364773,0.8615 10.884416,4.41078 14.761006,8.03584 6.85851,6.4135 10.02533,13.00588 14.48156,30.14629 5.36971,20.65404 12.8607,33.26404 26.11444,43.95994 3.53256,2.85082 12.14029,7.79093 15.10005,8.66616 1.77275,0.52422 6.43174,-2.72725 6.43174,-4.48868 0,-0.51959 -1.81674,-1.52072 -4.03721,-2.22477 -10.8657,-3.44515 -23.78453,-15.64144 -30.44647,-28.74364 -2.51787,-4.95194 -5.49349,-16.07877 -6.22199,-23.2661 -0.36575,-3.60849 -0.36379,-9.87345 0.004,-14.11256 1.32916,-15.30194 5.71802,-26.10088 18.33002,-45.10135 4.33319,-6.52812 8.71286,-13.51578 9.7326,-15.52815 3.09814,-6.11389 5.59306,-14.57135 6.16417,-20.895708 l 0.54169,-5.998529 2.14954,3.246911 c 1.18225,1.785803 3.12271,6.215376 4.31212,9.843496 1.82188,5.55733 2.16012,7.86867 2.147,14.67101 -0.0178,9.21425 -1.21269,15.17927 -6.23719,31.13595 -5.02212,15.9492 -5.90255,21.16218 -5.50407,32.58923 0.27605,7.91597 0.70785,10.75351 2.3332,15.33252 2.39358,6.74328 7.24998,14.42614 11.61622,18.37693 l 3.19037,2.88681 0.67704,-3.97397 c 0.65941,-3.87051 0.6038,-4.05955 -2.13627,-7.26071 -5.69703,-6.65548 -8.92236,-16.46431 -8.92236,-27.134 0,-8.05351 1.30806,-14.67375 5.83219,-29.51747 1.89222,-6.20839 4.15512,-14.74844 5.02871,-18.9779 3.20754,-15.5296 0.74626,-30.32925 -7.02333,-42.23107 -3.96495,-6.073698 -11.42713,-13.153784 -17.14184,-16.264121 l -3.73762,-2.034263 1.30001,2.513946 c 4.04711,7.826233 5.64067,17.404467 4.21478,25.333298 -1.72922,9.61553 -5.6616,17.65524 -15.42134,31.52871 -9.6099,13.66047 -15.51187,26.81262 -17.68436,39.40858 l -0.89486,5.18842 -2.87552,-4.41942 c -5.64248,-8.6719 -14.21414,-14.78777 -24.439209,-17.43736 -4.700946,-1.21813 -18.214711,-1.53539 -22.874937,-0.53701 -2.246445,0.48126 -2.194575,0.54293 3.103677,3.69056 10.030773,5.95918 15.550105,13.82006 17.272187,24.59988 0.88002,5.50871 0.670908,8.45171 -1.630372,22.94516 -5.025369,31.64988 3.174894,59.02073 24.276174,81.02913 7.62592,7.95374 18.80332,16.45846 28.50262,21.68721 4.04548,2.18085 7.19432,4.12632 6.99741,4.32322 -0.80438,0.80439 -25.93955,-3.83756 -32.38585,-5.98097 -26.341419,-8.75861 -44.143425,-33.44831 -46.316152,-64.23613 -0.250238,-3.54597 -0.700729,-6.44723 -1.001091,-6.44723 -0.909396,0 -5.442016,12.21665 -7.418096,19.99381 -4.469772,17.59142 -4.123555,34.43986 1.035018,50.36903 15.840414,48.91365 67.834281,68.71628 122.817461,46.77683 3.76603,-1.50273 9.90836,-4.39544 13.64962,-6.42825 3.74125,-2.03281 6.80228,-3.52293 6.80228,-3.31137 0,0.21154 -1.22328,2.47185 -2.71839,5.02289 -10.1368,17.29581 -12.59058,35.76757 -7.17925,54.04461 0.87339,2.94995 2.41953,7.0045 3.43583,9.01009 1.01633,2.00561 1.84785,3.78168 1.84785,3.94684 0,0.16516 -3.22647,-1.31788 -7.16992,-3.29564 -7.1638,-3.59288 -16.49298,-6.55534 -32.4332,-10.29909 -11.67057,-2.74096 -21.36884,-7.60672 -27.58933,-13.84192 -4.76619,-4.77748 -9.45996,-12.55969 -11.26873,-18.68348 -0.77515,-2.62434 -1.35247,-3.2738 -3.24703,-3.65271 -5.28936,-1.05787 -5.26491,-1.09205 -3.57652,5.00074 2.71064,9.78165 8.20552,18.55847 15.3318,24.48901 9.03402,7.5182 15.00339,10.10284 34.57926,14.97227 20.6824,5.14471 32.40136,10.5485 44.84532,20.67886 16.74578,13.6324 27.77476,20.21839 39.3594,23.50365 6.98677,1.98135 8.39194,2.03445 7.72323,0.29174 z m -15.43491,-10.75124 c -16.83841,-7.38387 -31.80545,-22.57544 -37.92895,-38.49787 -3.37932,-8.787 -4.20696,-14.19458 -3.7579,-24.55324 0.63873,-14.73461 4.75199,-24.50212 19.03494,-45.20099 8.52927,-12.3607 10.21321,-15.72519 10.60902,-21.19714 0.43909,-6.0712 -0.29453,-9.43781 -2.67249,-12.26389 -1.0932,-1.29916 -1.74399,-2.6057 -1.44624,-2.90343 1.11205,-1.11206 12.46191,-1.02919 17.97375,0.13122 10.8338,2.28083 19.17007,7.34821 25.19874,15.31755 9.18701,12.14431 11.67039,26.89047 7.21346,42.83198 -1.89411,6.77481 -6.82527,16.30562 -14.75767,28.52325 -7.83587,12.069 -11.02296,17.93288 -13.82379,25.43432 -2.05621,5.50708 -2.44301,7.71665 -2.75007,15.71042 -0.27846,7.24733 -0.0732,10.28066 0.93055,13.73228 0.70833,2.43663 1.1711,4.54701 1.02838,4.68976 -0.14281,0.14274 -2.32605,-0.64666 -4.85173,-1.75422 z m 9.64555,-19.5803 c 0.0347,-3.05543 2.66256,-11.42758 5.2123,-16.60455 1.60735,-3.26362 6.35889,-11.2976 10.55897,-17.85326 13.36294,-20.85763 17.07349,-30.15582 17.7988,-44.60158 0.4897,-9.75457 -0.77076,-16.57258 -4.57166,-24.72868 -5.07266,-10.88507 -13.57373,-19.70918 -23.34016,-24.22719 -12.71422,-5.88166 -25.12361,-6.25885 -44.88826,-1.36441 -10.68681,2.64645 -12.91343,2.94877 -21.53181,2.92366 -6.94249,-0.0202 -10.46678,-0.36848 -12.68837,-1.25378 l -3.07599,-1.22577 8.93707,-0.0542 c 17.66313,-0.10715 35.54703,-7.03225 45.61307,-17.66276 2.69569,-2.84682 3.03375,-2.90113 4.07897,-0.65501 0.76452,1.64291 0.83527,1.65594 1.40171,0.25828 0.78576,-1.93885 -1.72185,-6.58592 -4.34366,-8.04949 -1.93931,-1.08262 -2.11549,-0.97915 -7.30543,4.29129 -9.22945,9.37265 -23.42693,14.90867 -38.76932,15.11727 -4.44093,0.0603 -9.35144,-0.16155 -10.91223,-0.49319 l -2.83779,-0.60296 2.0688,-3.33242 2.06881,-3.33241 5.94016,-0.46075 c 7.92346,-0.61458 14.36884,-2.9059 31.4259,-11.17188 15.15348,-7.34347 20.05503,-9.23907 30.0844,-11.6345 31.86751,-7.61135 63.29795,5.83718 76.36651,32.67588 5.12419,10.52354 6.80313,17.95315 6.77706,29.99072 -0.053,24.59588 -9.25129,39.62893 -41.39703,67.65849 -5.92125,5.16304 -13.60526,12.38883 -17.07549,16.05733 -6.07359,6.42051 -14.06873,17.46836 -14.06873,19.44052 0,0.5233 -0.34604,1.16534 -0.76898,1.42672 -0.42295,0.26139 -0.76393,0.0223 -0.75762,-0.53136 z M 105.49022,346.87419 C 96.774682,342.74249 90.499577,338.11262 83.748974,330.83314 70.491684,316.53722 64.33249,299.96363 64.42407,278.83227 c 0.02568,-5.92125 0.351044,-11.7482 0.72309,-12.9488 0.64627,-2.08555 0.77326,-1.93125 2.847789,3.46046 8.270894,21.49615 24.047766,36.58505 45.626121,43.63653 3.79203,1.23918 9.11288,2.651 11.82412,3.13738 9.48177,1.70097 8.99895,1.35313 5.21308,3.75592 -7.55781,4.79674 -14.98983,16.10637 -16.92883,25.7613 -0.47816,2.38098 -1.08115,4.31952 -1.33997,4.30789 -0.25882,-0.0116 -3.36349,-1.39258 -6.89925,-3.06876 z m 225.68137,-37.11158 c -1.63133,-17.71013 -11.76574,-35.98816 -25.82985,-46.58576 -21.22136,-15.99076 -47.39911,-19.64458 -74.15598,-10.35051 -4.26961,1.48306 -13.64569,5.59809 -20.83579,9.14451 -15.94537,7.86488 -22.78602,10.29942 -30.55034,10.87266 -5.61304,0.41441 -15.20475,-0.85524 -15.20475,-2.01263 0,-0.26718 0.83802,-0.99851 1.86225,-1.62517 4.31723,-2.64139 13.65251,-11.90157 16.84976,-16.71422 4.87996,-7.34552 6.62773,-13.15924 7.4311,-24.71845 1.10427,-15.88867 4.81361,-24.72272 14.72477,-35.06796 8.73564,-9.11825 19.46263,-14.95483 32.3947,-17.62602 8.56758,-1.76969 8.86795,-1.71646 9.42116,1.66941 1.06021,6.48917 1.30453,7.67996 2.42918,11.84282 1.17394,4.345 1.17402,4.3451 3.54151,3.66613 1.30214,-0.37344 2.66756,-0.97904 3.03422,-1.34574 0.37634,-0.37634 0,-3.98288 -0.86396,-8.2801 -3.02392,-15.03981 -2.79757,-25.45198 0.87496,-40.24997 l 1.61089,-6.49086 5.85764,6.17242 c 12.01581,12.66148 20.82795,26.55255 28.44051,44.8323 3.60466,8.65562 5.36226,11.87944 7.96522,14.60991 15.46745,16.22467 27.13992,39.58447 32.10677,64.25401 2.15517,10.70483 2.87888,30.55214 1.50738,41.34224 -0.52485,4.1286 -1.21194,7.66585 -1.52699,7.86055 -0.31497,0.1947 -0.80299,-2.1451 -1.08436,-5.19957 z M 213.47571,244.13752 c 3.85748,-2.94226 7.69891,-4.06761 14.01496,-4.10564 8.7117,-0.0525 13.76221,-3.39772 16.68531,-11.05166 1.09573,-2.86929 1.75753,-3.52761 4.31734,-4.29453 3.48162,-1.0431 7.95494,-4.70331 9.57351,-7.83331 1.59105,-3.07673 1.44855,-3.20185 -1.77384,-1.55789 -4.16448,2.12455 -7.97861,2.99562 -17.10579,3.90663 -10.53735,1.05176 -16.13107,3.62231 -20.58132,9.45783 -1.69187,2.21857 -3.67402,5.21474 -4.4048,6.65819 -1.67147,3.30166 -4.2844,10.83293 -3.75839,10.83293 0.21692,0 1.58178,-0.90565 3.03302,-2.01255 z m 13.21537,-11.89091 c -2.11135,-1.22974 -1.63765,-1.96234 2.65017,-4.09908 5.3971,-2.68948 7.09426,-2.65693 6.43609,0.12346 -0.95386,4.02897 -5.54544,6.03797 -9.08626,3.97562 z m -68.16847,49.63488 c -2.76292,-3.1468 -2.98565,-4.20272 -0.8865,-4.20272 2.6494,0 9.26576,1.64405 9.26576,2.30235 0,0.76784 -4.47081,4.61859 -5.36228,4.61859 -0.34669,0 -1.70433,-1.2232 -3.01698,-2.71822 z m 239.36649,71.25759 c 18.95229,-8.59338 34.25472,-26.21906 40.80861,-47.00436 6.8734,-21.79884 5.09824,-48.06616 -4.7127,-69.73836 l -2.02476,-4.47265 -0.57582,2.69147 c -0.31671,1.48032 -1.15465,5.63287 -1.86227,9.22791 -1.80121,9.15096 -6.66256,19.1438 -12.24621,25.17281 -8.20747,8.86204 -19.18975,12.81773 -34.28709,12.34979 l -7.30543,-0.22644 3.46048,-2.05452 c 5.6481,-3.35332 13.43599,-10.21255 17.93168,-15.79331 14.62946,-18.1606 18.63123,-40.18564 11.57257,-63.69364 -2.63127,-8.76306 -2.96354,-18.53606 -0.77038,-22.65706 2.00492,-3.76722 4.96308,-6.77979 8.56228,-8.71969 2.64241,-1.42422 4.29544,-1.65367 11.72713,-1.62783 4.75814,0.0165 8.65118,-0.20054 8.65118,-0.48239 0,-0.28184 -2.21302,-2.74732 -4.9178,-5.47882 -11.72329,-11.83929 -25.31131,-17.52695 -41.87242,-17.52695 -11.83503,0 -22.20063,3.03151 -31.25156,9.13998 l -3.39296,2.2899 -0.52721,-3.60022 c -0.28997,-1.98008 -1.94572,-8.27183 -3.67949,-13.9816 -2.85219,-9.39311 -3.14902,-11.15009 -3.11795,-18.45584 0.0277,-6.50278 0.37127,-8.93131 1.76569,-12.47673 2.2553,-5.73409 7.35901,-12.506415 12.32972,-16.360503 l 3.96716,-3.075971 -5.6005,-0.242294 c -13.21983,-0.571929 -27.23096,2.799949 -38.01923,9.149646 -2.45533,1.445145 -7.25561,5.395912 -10.66733,8.779482 -4.78682,4.74742 -6.98299,7.68014 -9.61917,12.8457 l -3.41609,6.69375 2.64394,2.7279 c 2.9163,3.0089 3.26477,2.90642 4.62926,-1.36113 1.39188,-4.35324 7.97346,-13.77536 12.40648,-17.76105 5.14795,-4.62841 11.48697,-8.402634 17.5095,-10.424939 5.44771,-1.829319 11.81603,-3.179763 11.46761,-2.431778 -0.12397,0.265994 -1.3136,2.732938 -2.64372,5.482087 -5.70509,11.79134 -5.58274,22.22483 0.48315,41.20659 1.22793,3.84253 2.4671,9.57395 2.75369,12.73652 l 0.52107,5.75011 -3.471,4.26149 c -5.357,6.57697 -9.3049,12.68393 -13.09066,20.25 -3.20991,6.41521 -7.46314,18.25535 -7.46314,20.7758 0,1.77641 4.52914,8.43308 4.91087,7.2177 0.18632,-0.59331 1.27591,-4.36618 2.42125,-8.38417 2.98138,-10.45866 9.99521,-24.48437 16.03135,-32.05833 8.70253,-10.9196 19.79948,-18.25604 31.33876,-20.7188 11.40678,-2.43447 25.63261,-0.21235 36.03162,5.62829 4.19731,2.35744 4.79982,3.30485 2.12203,3.33706 -2.63041,0.0317 -11.22229,3.93146 -16.36578,7.42837 -11.63347,7.90925 -18.49781,18.90616 -24.63084,39.45938 -6.82912,22.88608 -14.31918,34.5109 -26.75979,41.53195 -3.14287,1.7737 -4.27961,2.83132 -4.01284,3.73343 0.20463,0.69228 0.59912,2.21032 0.87651,3.37342 0.27744,1.16309 0.67793,2.11473 0.8901,2.11473 0.21216,0 2.51046,-1.11844 5.10734,-2.48542 2.9251,-1.53975 7.22139,-4.97773 11.2915,-9.03567 8.42109,-8.39594 12.10487,-15.40375 18.78518,-35.73536 5.41826,-16.49049 9.54283,-25.19854 14.33812,-30.27151 1.72608,-1.8261 3.2576,-3.2009 3.40341,-3.05514 0.1458,0.14578 -0.0934,1.81288 -0.53138,3.70466 -1.10397,4.76833 -0.38819,11.08964 2.47938,21.89545 3.19717,12.04761 3.50754,24.29041 0.8539,33.67534 -3.20917,11.34939 -9.66362,21.8935 -17.97744,29.36834 -6.23692,5.60754 -10.01223,7.99461 -22.52134,14.2401 l -11.55167,5.76745 -0.23437,3.65271 c -0.26,4.05176 -0.0515,4.17566 4.10341,2.43958 5.55768,-2.32211 14.06958,-3.40082 26.83532,-3.40082 14.2619,0 21.00934,-1.27913 29.13398,-5.52302 6.85219,-3.5792 15.55096,-12.56166 19.38362,-20.01573 3.49739,-6.80204 3.55313,-6.75895 5.00538,3.86773 2.60157,19.03761 -2.31767,41.22356 -12.43685,56.09068 -6.05775,8.89994 -16.51681,18.08197 -26.03541,22.85636 -2.3262,1.16679 -4.31559,2.19476 -4.42086,2.28439 -0.10519,0.0896 -0.49307,1.77822 -0.86196,3.75246 -0.8179,4.37805 -0.44609,4.45905 6.34119,1.38153 z M 323.77097,190.55369 C 321.7262,160.85968 312.25044,143.23436 285.23857,118.88176 274.47322,109.1762 268.53674,102.2047 264.60942,94.655974 257.10929,80.239773 257.42127,68.257357 265.704,52.606285 l 4.1448,-7.832023 -6.29513,2.685523 c -14.64177,6.246229 -25.41552,13.916641 -33.26079,23.680258 -8.57911,10.676934 -13.33134,22.122524 -15.07449,36.306637 -1.76222,14.33962 2.14939,32.64202 9.89834,46.31341 l 3.64201,6.4256 3.42317,-0.46922 c 1.88281,-0.25807 3.58167,-0.62758 3.77522,-0.82116 0.19356,-0.19357 -0.71624,-2.01661 -2.02184,-4.05118 -3.95101,-6.15706 -8.33503,-16.3391 -10.18661,-23.65849 -2.04522,-8.08472 -2.40219,-21.02276 -0.78507,-28.45273 2.65664,-12.206612 9.14732,-24.010099 17.88139,-32.518112 4.65341,-4.532981 11.83072,-10.160995 12.95816,-10.160995 0.27674,0 0.05,2.162793 -0.50386,4.806206 -2.18701,10.436455 -0.70994,21.16888 4.36565,31.720954 4.00607,8.328647 9.52636,14.989777 22.62362,27.299257 6.07512,5.70977 12.75398,12.28466 14.84186,14.61086 13.44439,14.97909 20.32287,30.9382 21.47905,49.83455 0.47725,7.79972 0.55552,8.06433 3.60281,12.17741 2.82012,3.80651 3.17156,4.05149 3.71285,2.58829 0.32882,-0.88889 0.25938,-6.53083 -0.15417,-12.53764 z"
       id="path1"
       sodipodi:nodetypes="ssssssssscssssscsssscsssssscsssssscssscsscsssssssssssssssssssssscsssssssssscssssssssscssscssssssscssssssscsssscsssssssssssssssssssssssssssssssssssssssssssssssscsssssssscsssssssscccsssscsssscsssssssssssssssssssssssssssscsscssssssssssssssssssssssssssscsssscsssssssssscssssscsssscsssssssscssssssssssssssssssssssssscssssssssssscssscsssscssssssscssssssc" />
  </g>
</svg>
