<?xml version="1.0" encoding="UTF-8" standalone="no"?>
<!-- Created with Inkscape (http://www.inkscape.org/) -->

<svg
   version="1.1"
   id="svg1"
   width="564"
   height="976"
   viewBox="0 0 564 976"
   sodipodi:docname="settings.svg"
   inkscape:version="1.4.4 (dcaf3e7, 2026-05-05)"
   xmlns:inkscape="http://www.inkscape.org/namespaces/inkscape"
   xmlns:sodipodi="http://sodipodi.sourceforge.net/DTD/sodipodi-0.dtd"
   xmlns="http://www.w3.org/2000/svg"
   xmlns:svg="http://www.w3.org/2000/svg">
  <defs
     id="defs1" />
  <sodipodi:namedview
     id="namedview1"
     pagecolor="#ffffff"
     bordercolor="#000000"
     borderopacity="0.25"
     inkscape:showpageshadow="2"
     inkscape:pageopacity="0.0"
     inkscape:pagecheckerboard="0"
     inkscape:deskcolor="#d1d1d1"
     showgrid="false"
     inkscape:zoom="0.6431686"
     inkscape:cx="433.78983"
     inkscape:cy="479.6565"
     inkscape:window-width="1920"
     inkscape:window-height="1129"
     inkscape:window-x="2552"
     inkscape:window-y="-8"
     inkscape:window-maximized="1"
     inkscape:current-layer="g1" />
  <g
     inkscape:groupmode="layer"
     inkscape:label="Image"
     id="g1">
    <path
       style="fill:#ededff"
       d="m 187.62871,974.77525 c 36.2007,-2.8737 64.1477,-8.5826 119.8952,-24.4914 56.7735,-16.2017 87.6751,-22.0247 123,-23.1777 53.4016,-1.7432 93.4827,10.1123 122.3709,36.1957 4.7164,4.2585 7.7171,6.309 8.3323,5.6939 3.5483,-3.5483 3.4759,-43.5232 -0.1112,-61.405 -10.6235,-52.9586 -44.5761,-90.68 -97.5226,-108.34781 -12.7716,-4.26173 -29.8452,-8.03573 -40.8194,-9.02279 -4.2625,-0.38339 -7.7383,-0.9725 -7.724,-1.30914 0.014,-0.33664 1.1131,-3.8911 2.4417,-7.8988 4.7873,-14.44102 5.9946,-22.61446 6.0141,-40.71327 0.024,-22.06753 -2.13,-31.70295 -10.8405,-48.5 -10.8722,-20.96578 -11.7333,-22.92586 -13.2838,-30.23931 -3.284,-15.48944 -1.4953,-21.81127 18.2114,-64.36511 21.5054,-46.43791 29.4564,-82.33222 28.109,-126.89558 -0.7634,-25.24622 -2.4388,-36.1351 -10.1487,-65.95642 -6.0742,-23.49488 -9.1844,-46.54692 -6.2792,-46.54106 2.0614,0.004 18.9511,4.7021 24.5418,6.82639 2.8645,1.08842 5.2082,1.63577 5.2082,1.21633 0,-2.5184 -33.4595,-12.75622 -44.8738,-13.73035 -7.1193,-0.60757 -7.2803,-0.67826 -4.6655,-2.0483 5.7765,-3.0266 22.724,-9.3978 30.1971,-11.35215 4.3132,-1.128 12.7872,-2.3577 18.831,-2.73267 13.8866,-0.86155 14.4446,-1.89404 4.9204,-9.10407 l -6.7075,-5.0777 h 9.2149 c 8.951,0 13.0834,-0.98104 13.0834,-3.10599 0,-0.56959 -1.9729,-3.81626 -4.3841,-7.21482 -6.5102,-9.17576 -11.9726,-20.78561 -16.0979,-34.21464 -2.0215,-6.5805 -5.2553,-17.13955 -7.1862,-23.46455 -3.7844,-12.39621 -9.0935,-24.55377 -14.8885,-34.09326 -3.1795,-5.23402 -3.4666,-6.21277 -2.2894,-7.80282 0.7403,-0.99996 3.473,-4.65797 6.0727,-8.12891 10.1471,-13.5482 14.6974,-29.29056 15.7458,-54.47501 0.6838,-16.42399 0.9864,-18.55344 3.4569,-24.32091 6.6606,-15.54998 10.1394,-40.715202 9.2657,-67.028487 -1.0857,-32.70021 -7.2153,-51.3967901 -18.4846,-56.3817301 -12.4003,-5.48525 -28.063,2.94021 -61.2282,32.9366701 -18.483,16.71713 -28.4517,27.48421 -40.3138,43.54273 l -8.8316,11.955895 -9.1684,4.32315 c -15.8981,7.496392 -31.2014,10.082462 -54.1684,9.153822 -15.8797,-0.64208 -25.043,-2.32309 -36.2752,-6.654692 -10.5153,-4.05514 -15.0692,-7.21216 -19.2248,-13.327905 -19.4528,-28.62819 -67.5082,-73.03615 -88.0319,-81.3501901 -2.5804,-1.04531 -7.0359,-1.81812003 -10.546,-1.82919003 -5.1658,-0.0163 -6.6416,0.41088 -9.8351,2.84667003 -8.8585,6.75672 -13.852,22.1766501 -15.5782,48.1058301 -1.6473,24.74314 1.3226,50.741797 8.0639,70.593017 3.4083,10.0364 3.9284,12.74547 3.9355,20.5 0.024,26.70797 6.2499,48.14427 18.7809,64.66919 l 5.1063,6.73387 -3.8054,6.26613 c -7.9656,13.11627 -11.8833,22.68417 -17.5113,42.76613 -6.8943,24.60022 -12.7414,38.2978 -21.1432,49.53061 -2.4395,3.26153 -4.4355,6.28753 -4.4355,6.72447 0,1.68621 5.5001,2.74492 14.2601,2.74492 h 9.1299 l -6.744,4.65645 c -5.1675,3.56791 -6.6742,5.14586 -6.4451,6.75 0.2758,1.93079 1.1543,2.14655 11.2991,2.77532 13.5629,0.84061 22.6441,3.16061 39.1834,10.01029 12.1324,5.02457 12.603,5.32294 8.8166,5.58899 -10.6627,0.74917 -32.4042,6.55478 -44.4037,11.85708 -6.8844,3.04202 -6.2063,3.97146 0.9215,1.26312 5.0114,-1.90418 22.535,-6.89302 24.2322,-6.89873 1.4002,-0.005 0.758,13.70974 -1.1531,24.62655 -1.0467,5.97901 -3.7238,17.84593 -5.9493,26.37093 -5.2523,20.12008 -6.8684,29.06601 -8.666,47.97032 -3.701,38.92024 -10.5143,61.17284 -34.014,111.09285 -14.322298,30.42439 -19.906598,45.09669 -25.506898,67.01661 -5.658,22.14591 -8.5726,49.66964 -7.5098,70.92022 0.6406,12.80953 3.0343,35.63796 4.1012,39.11204 0.3331,1.08469 -1.2301,2.91626 -4.7785,5.59894 -2.9005,2.1928 -8.46403,7.14885 -12.36343,11.01345 -36.2180096,35.89477 -50.0303595,91.02178 -33.5278096,133.81438 18.8128696,48.7833 77.6722376,79.641 153.2224376,80.3283 8.0326,0.073 20.4076,-0.3278 27.5,-0.8908 z m -44.1048,-5.5522 c -1.65,-0.2328 -7.275,-0.9031 -12.5,-1.4897 -38.5605,-4.3287 -75.187298,-20.1217 -96.807528,-41.7419 -11.64887,-11.6489 -21.00785,-27.7741 -25.3588096,-43.6925 -1.84616,-6.7543 -2.19534,-10.7249 -2.24253,-25.5 -0.0512,-16.022 0.18187,-18.429 2.75927,-28.5 6.6094196,-25.82571 19.9553796,-48.48569 38.8708996,-65.99858 8.2893,-7.67459 10.6217,-9.19275 11.2072,-7.29455 0.2193,0.71121 1.9797,6.96228 3.9119,13.89125 4.3979,15.7712 9.2125,28.67967 15.8812,42.57968 2.855698,5.9522 5.379698,11.2143 5.608998,11.6935 0.2293,0.4792 -2.2269,-0.924 -5.458198,-3.1184 -6.0117,-4.0825 -13.2094,-11.2113 -15.341,-15.19431 -0.6564,-1.2264 -1.4266,-1.9967 -1.7116,-1.7118 -1.0143,1.0143 4.9361,10.47761 9.5205,15.14111 6.2512,6.359 11.367098,9.7666 21.064098,14.03 16.7518,7.3654 34.0424,10.0767 58.4996,9.1733 27.7708,-1.0259 50.1645,-5.6437 107.596,-22.1874 63.6776,-18.34301 88.8985,-23.16664 126.5,-24.19393 21.9139,-0.5987 35.3924,0.38987 53.5,3.92392 l 11.5,2.2444 -14,0.6303 c -26.2466,1.1816 -47.1948,8.07951 -69.1645,22.77471 -11.0368,7.3824 -12.2342,8.6467 -10.1572,10.7237 1.2892,1.2892 2.4914,1.335 8.3345,0.3175 11.5698,-2.0148 23.8945,-0.07 35.7425,5.641 4.181,2.0153 3.4179,3.3934 -1.8934,3.4193 -5.1165,0.025 -20.3725,4.8639 -27.3619,8.6788 -15.2195,8.3067 -26.0498,17.7086 -45.3134,39.3365 -27.0439,30.3633 -41.1617,42.5079 -63.6866,54.7853 -16.8497,9.1841 -42.3908,17.4745 -61,19.8 -11.1623,1.395 -52.4472,2.6926 -58.5,1.8388 z m 409,-14.1685 c -11.6709,-10.3266 -32.7528,-21.1678 -51.9668,-26.7236 -20.3602,-5.8873 -29.6851,-6.9793 -59.5332,-6.9718 -20.5857,0.01 -30.6429,0.4427 -40,1.7404 -30.1688,4.1839 -55.8059,9.9673 -100,22.5586 -13.475,3.8392 -28.325,7.9385 -33,9.1097 -4.675,1.1712 -9.4,2.3587 -10.5,2.6389 -1.1,0.2802 2.05,-1.6765 7,-4.3483 23.4015,-12.6308 36.5478,-23.6051 62.1911,-51.9153 19.0351,-21.0149 26.1016,-27.9464 35.8089,-35.1247 13.5741,-10.0378 30.7793,-16.2195 45.1432,-16.2195 6.6843,0 8.5422,-0.3196 9.0147,-1.5509 0.8119,-2.1157 -2.7229,-5.6583 -9.9283,-9.9506 -8.5994,-5.1226 -16.8811,-7.6324 -27.5909,-8.3613 l -9.3613,-0.6372 7.8613,-4.6072 c 27.1184,-15.8933 55.1179,-20.75711 87.844,-15.2595 12.2008,2.0496 21.3714,5.8112 33.4315,13.7131 29.3933,19.2588 48.2359,47.6202 56.1648,84.5379 2.2885,10.6558 3.7972,42.2274 2.2823,47.7631 l -0.8613,3.1475 z m -434.5783,-120.8074 c -4.168,-0.7548 -11.2998,-2.548 -15.8484,-3.9848 l -8.2701,-2.6126 -7.8138,-16.1754 C 67.843112,773.85984 59.714212,738.19641 59.760912,696.29894 c 0.048,-43.28306 7.861,-73.45172 33.018798,-127.5 5.7602,-12.375 12.4052,-27.225 14.7666,-33 5.0825,-12.42919 11.4776,-31.48385 11.4776,-34.19828 0,-1.05586 0.45,-1.64164 1,-1.30172 0.55,0.33992 1,2.13071 1,3.97955 0,6.36666 4.8851,32.04542 8.4339,44.33294 4.455,15.42507 10.0512,29.85481 18.3004,47.18751 23.4122,49.19171 37.3022,96.17275 48.7268,164.8117 5.1019,30.65246 10.0098,66.05071 9.2614,66.79911 -0.6678,0.6678 -24.9453,5.4322 -35.2225,6.9124 -12.6793,1.826 -42.3137,1.7838 -52.5783,-0.075 z m 62.9326,-29.19821 c 3.8838,-27.7566 1.5077,-53.96569 -7.2437,-79.90263 -8.5922,-25.46506 -24.735,-49.13848 -42.3797,-62.14979 -7.3347,-5.40864 -18.5551,-11.36798 -24.4809,-13.00219 -4.6994,-1.29601 -4.9425,-0.0284 -0.3154,1.64482 10.1661,3.67609 27.988,18.45754 37.9627,31.48624 22.8652,29.86569 33.7894,65.33484 34.0089,110.42196 0.052,10.58659 0.3795,19.2491 0.7287,19.25 0.3493,9e-4 1.123,-3.4859 1.7194,-7.74841 z m 30.7286,17.56681 c -0.293,-1.8243 -2.1351,-15.01681 -4.0934,-29.31681 -7.3767,-53.86529 -17.1351,-100.44499 -28.3348,-135.25 -2.6989,-8.3875 -4.7844,-15.25 -4.6344,-15.25 0.15,0 2.4279,3.4875 5.062,7.75 2.6342,4.2625 12.3154,19.26205 21.5139,33.33233 19.5137,29.84897 34.7158,55.00923 40.9689,67.80587 2.4392,4.99157 4.7583,9.08374 5.1535,9.09369 0.9944,0.0251 0.259,-1.84812 -5.7354,-14.60851 -8.3578,-17.79137 -25.4372,-47.00178 -50.5028,-86.37338 -19.7267,-30.98546 -39.897,-68.82742 -48.4799,-90.9541 -6.9742,-17.97947 -13.0919,-43.5465 -15.5617,-65.03588 -1.5361,-13.36438 -0.6544,-49.79518 1.5366,-63.4935 1.6815,-10.51232 8.204,-37.96019 9.6281,-40.51652 0.5986,-1.07444 0.8469,-0.64888 0.8751,1.5 0.064,4.83193 4.6321,23.67559 8.5526,35.27645 6.9929,20.69266 20.5532,44.78412 36.1493,64.22355 6.8124,8.49113 22.4533,24.58054 42.3791,43.59422 13.1085,12.5085 22.0974,24.37615 29.8038,39.34893 7.1604,13.91184 11.4166,25.70948 14.1966,39.35155 2.4015,11.78412 3.4869,13.8783 2.6021,5.02022 -2.2688,-22.71183 -11.017,-46.10514 -24.9863,-66.81492 -4.5026,-6.67529 -12.177,-15.07009 -29.711,-32.5 -26.5614,-26.40368 -37.0657,-38.98573 -48.1386,-57.66059 -16.8524,-28.42207 -24.6944,-53.89224 -28.2763,-91.83941 -0.8826,-9.35 -1.8591,-18.18176 -2.1702,-19.62612 l -0.5655,-2.62613 10.1603,-1.24463 c 5.5882,-0.68454 12.2675,-1.01919 14.8429,-0.74366 4.8078,0.51435 17.187,6.70249 30.1442,15.06849 l 6.4617,4.17205 -10.4617,0.65224 c -5.7539,0.35873 -14.2866,1.56438 -18.9616,2.67921 -8.8808,2.11777 -25.4452,8.05666 -24.6604,8.84154 0.2498,0.2498 4.2131,-0.65942 8.8073,-2.02049 15.1833,-4.49819 28.6915,-6.6525 41.7132,-6.6525 7.1025,0 7.9905,0.23508 11.1777,2.95936 4.5727,3.9086 6.1128,3.86317 2.3993,-0.0708 l -2.9371,-3.11142 3,0.55789 c 1.65,0.30684 4.9101,0.84613 7.2447,1.19842 4.8126,0.72623 4.7596,0.67351 5.6503,5.61528 l 0.6576,3.64876 -6.2763,0.71765 c -13.5891,1.55381 -28.7015,7.29883 -40.8166,15.51654 -5.1219,3.47422 -8.9593,6.96829 -7.6529,6.96829 0.3035,0 3.3694,-1.87152 6.8132,-4.15894 11.7077,-7.77651 28.2041,-13.52451 43.88,-15.28955 l 5.5,-0.61928 2.3983,4.55152 c 2.815,5.34239 8.289,10.55241 14.3066,13.61686 2.3623,1.20298 4.9421,3.13497 5.7329,4.29331 7.8609,11.51418 26.1893,18.32852 42.3122,15.73127 3.9875,-0.64235 9.9715,-2.49171 13.2978,-4.1097 5.1478,-2.50396 7.7798,-4.65584 15.9522,-13.04194 0.55,-0.56439 3.7421,-2.759 7.0935,-4.87691 4.4871,-2.83561 7.1233,-5.46693 10,-9.98149 l 3.9065,-6.13076 5.5,0.55955 c 14.4355,1.46861 33.9712,8.52405 45.4282,16.40667 6.0641,4.17221 5.9065,2.19173 -0.1782,-2.23947 -12.0064,-8.74367 -26.7748,-14.86222 -40.7503,-16.88286 l -8.6648,-1.25281 0.5825,-2.91274 c 0.3204,-1.602 0.5826,-3.4991 0.5826,-4.21577 0,-0.84384 2.0264,-1.53348 5.75,-1.95692 3.1625,-0.35963 6.65,-0.8979 7.75,-1.19617 1.8172,-0.49272 1.7784,-0.30242 -0.4243,2.08192 -3.1328,3.3911 -1.7648,3.38184 2.2726,-0.0154 3.1337,-2.63683 3.1507,-2.63896 16.1443,-2.0324 13.0348,0.60848 25.388,2.77286 37.4645,6.56409 6.2334,1.95688 9.8109,2.12944 4.9316,0.23786 -1.3138,-0.50931 -4.6387,-1.81766 -7.3887,-2.90744 -8.8324,-3.50014 -22.4134,-6.38394 -33.3505,-7.08169 l -10.6495,-0.6794 5.5917,-3.66021 c 3.0755,-2.01312 10.5542,-6.39193 16.6193,-9.73071 9.5949,-5.28188 11.7176,-6.07046 16.3405,-6.07046 8.8289,0 23.1078,2.14241 22.6272,3.39498 -0.2363,0.61569 -0.9696,6.0662 -1.6296,12.11223 -3.0627,28.05582 -4.2193,35.83245 -7.0417,47.34577 -5.5001,22.43683 -14.4724,42.63706 -27.7948,62.57713 -10.8418,16.22736 -19.1155,25.67194 -44.3005,50.56989 -24.5244,24.24504 -31.3765,33.0412 -39.8819,51.19717 -7.0829,15.11953 -13.1707,37.7546 -12.9335,48.08829 0.077,3.3718 0.4886,2.31491 2.0564,-5.28546 2.6737,-12.96168 6.9851,-25.57648 12.8163,-37.5 9.7672,-19.97181 20.5923,-33.64995 41.6872,-52.67434 38.7331,-34.93136 62.3416,-71.64666 72.87,-113.32566 1.8061,-7.15 3.6231,-15.7 4.0377,-19 l 0.7539,-6 2.8418,11.5 c 12.8468,51.98856 13.1944,87.96174 1.3012,134.64329 -9.1401,35.87555 -24.9062,67.08054 -70.2301,139.00327 -22.745,36.09308 -44.9255,76.99239 -42.8695,79.0484 0.2825,0.28247 2.5847,-3.61029 5.1161,-8.65055 6.8283,-13.59607 22.8414,-39.91 44.146,-72.54441 10.4126,-15.95 19.9244,-30.575 21.1373,-32.5 1.2129,-1.925 2.2129,-3.14334 2.2221,-2.70742 0.01,0.43593 -1.7631,6.28593 -3.9386,13 -10.1953,31.46528 -22.3851,87.11865 -27.1078,123.76248 l -1.2314,9.55507 -12.1027,1.73713 c -10.9867,1.57695 -30.6833,5.30664 -38.0018,7.19604 -1.6581,0.428 -2.6625,0.3649 -2.3463,-0.1475 0.9426,-1.5274 3.6943,-35.79818 4.729,-58.8958 0.542,-12.1 0.7097,-31.9 0.3726,-44 -0.6779,-24.33027 0.1983,-34.90875 4.2002,-50.71211 7.5328,-29.74735 23.9802,-59.51891 46.4846,-84.14232 9.2012,-10.06757 3.5958,-5.96774 -7.6625,5.60443 -23.8881,24.55396 -39.5804,53.12106 -46.512,84.67297 -1.9036,8.6652 -2.1783,14.24235 -2.8851,58.57703 -0.6916,43.38585 -2.2031,72.58129 -4.5311,87.5212 l -0.5487,3.5212 -15.7008,4.3517 c -8.6354,2.39341 -16.1758,4.52971 -16.7564,4.74731 -0.6816,0.2555 -1.6602,-6.25501 -2.7617,-18.37285 -3.2064,-35.27423 -3.8312,-48.79378 -4.0794,-88.26856 -0.2715,-43.19088 -0.8277,-48.45639 -7.2673,-68.79958 -4.2777,-13.51347 -16.1018,-36.12368 -25.4343,-48.63592 -7.9247,-10.62464 -26.2708,-30.5645 -28.1216,-30.5645 -0.5049,0 2.0869,3.4453 5.7594,7.65621 24.376,27.94945 39.938,58.20954 46.7185,90.84379 1.8852,9.07342 2.0967,13.8453 2.2833,51.5 0.2005,40.47861 0.6494,50.09243 4.0979,87.76123 0.9195,10.04367 1.4305,18.50258 1.1355,18.79748 -0.58,0.58 -39.2194,11.7889 -44.4668,12.8993 -3.0187,0.6388 -3.2211,0.4953 -3.7249,-2.6412 z m 153.4171,-34.23108 c 0,-2.4647 4.6226,-30.9006 7.5731,-46.58573 6.5689,-34.92067 19.1396,-84.19507 20.5057,-80.37764 0.3695,1.0327 1.6187,5.02764 2.776,8.87764 1.1572,3.85 4.6336,11.42551 7.7253,16.83446 11.1914,19.57946 15.0361,35.33325 14.0733,57.66554 -0.621,14.40646 -1.9815,22.13317 -6.2644,35.5785 l -2.6826,8.4215 -16.6032,0.009 c -9.1318,0.005 -18.9657,0.29246 -21.8532,0.63929 -4.5142,0.54222 -5.25,0.39333 -5.25,-1.06225 z m -92.5,-364.90612 c -5.0338,-1.29019 -14.7687,-6.0889 -16.4278,-8.09792 -0.6272,-0.75952 1.5373,-1.09758 7.2673,-1.13505 4.9203,-0.0322 10.3721,-0.75889 13.7305,-1.83027 5.3218,-1.69775 5.8341,-1.69863 11.5,-0.0199 3.273,0.96975 9.4275,1.78983 13.7359,1.83026 l 7.8058,0.0733 -2.9446,2.63655 c -6.7474,6.04132 -23.954,9.28889 -34.6671,6.54306 z m -20.5,-16.10732 c -8.1908,-2.27315 -15.8915,-7.76396 -18.9785,-13.53216 -1.0121,-1.89102 -0.7891,-1.94472 5.7126,-1.37558 8.8434,0.77412 7.3989,-1.3073 -2.0278,-2.92203 -6.4154,-1.09892 -6.5803,-1.20452 -7.4927,-4.7989 l -0.9328,-3.67526 6.1096,1.85818 c 3.3603,1.022 6.7846,1.84731 7.6096,1.83402 2.5587,-0.0412 -1.8989,-2.81626 -8.2347,-5.12641 -5.6637,-2.06509 -5.7653,-2.17025 -5.7653,-5.96814 0,-2.28354 0.4785,-3.86601 1.1691,-3.86601 0.6431,0 3.5612,1.35 6.4849,3 2.9236,1.65 5.6259,3 6.0052,3 1.4613,0 -4.2469,-5.15439 -8.4106,-7.59447 -5.2782,-3.09321 -5.3143,-2.68308 1.9727,-22.40553 9.9943,-27.04969 10.9571,-30.61757 11.5103,-42.65238 1.1237,-24.44776 -8.1926,-44.07242 -24.7316,-52.09685 -4.6809,-2.27108 -6.8404,-2.67462 -14.5,-2.70963 -7.8597,-0.0359 -10.5495,0.46565 -21.2299,3.95886 -6.7265,2.2 -12.239,4.28502 -12.25,4.63337 -0.027,0.84319 3.8217,1.836 7.1828,1.85298 5.4283,0.0274 7.8948,2.11725 11.2888,9.56498 3.658,8.0268 8.8547,13.79359 14.9072,16.54226 3.2472,1.4747 6.5996,1.87169 16.1011,1.90668 16.1978,0.0597 18.5,1.89815 18.5,14.77403 0,8.86537 -2.3058,17.70777 -10.0587,38.57465 l -6.2602,16.84895 -1.6746,-5.34895 c -11.1202,-35.52052 -52.0249,-52.2371 -96.3155,-39.36146 -8.7217,2.53548 -6.7608,3.35057 3.059,1.27155 10.9174,-2.31142 36.1249,-1.90834 45.75,0.73155 16.0344,4.39779 30.4461,14.39601 37.3946,25.94277 2.9363,4.87949 7.1054,16.70887 7.1054,20.16102 0,0.70203 -3.7335,-0.12788 -9.75,-2.1673 -11.7666,-3.98853 -21.8767,-6.11686 -33.25,-6.99963 -6.1206,-0.47507 -9.6248,-1.30083 -12.5181,-2.94983 -6.2458,-3.55977 -24.0232,-11.25073 -31.3583,-13.56637 -3.643,-1.15008 -10.7686,-2.84158 -15.8348,-3.75889 l -9.2112,-1.66784 5.9612,-4.77011 c 5.7417,-4.59445 7.4984,-7.95998 4.7112,-9.02569 -0.6875,-0.26288 -6.3625,-0.22886 -12.611,0.0756 l -11.361,0.55353 3.1954,-5.40892 c 5.9179,-10.0175 10.8262,-21.33809 14.4852,-33.40892 11.7239,-38.67647 15.1952,-47.11142 25.1721,-61.16699 10.1393,-14.28432 27.7336,-30.74951 44.6193,-41.75571 4.8125,-3.13683 8.75,-5.90562 8.75,-6.15288 0,-0.94038 -14.8211,7.04746 -21.985,11.84881 -10.684,7.16059 -19.5541,14.46126 -26.8517,22.10071 l -6.3367,6.63351 -1.9658,-2.25372 c -3.8746,-4.44218 -9.0542,-12.99903 -11.845,-19.56831 -4.0674,-9.57435 -5.8334,-17.22051 -6.9866,-30.24999 -1.5485,-17.49555 -1.7092,-17.0185 3.4656,-10.28451 12.3693,16.09606 16.0676,17.93342 6.4866,3.22262 -16.9909,-26.088 -22.9855,-48.29438 -22.9774,-85.116957 0,-24.53824 2.8053,-41.43678 8.4986,-51.29325 8.5142,-14.7401301 26.8713,-6.2870701 66.36,30.55737 25.4875,23.78087 38.71,40.765795 50.6078,65.008287 3.0918,6.29979 7.0039,15.95796 8.6936,21.46259 3.6946,12.03673 4.836,13.65775 4.836,6.86838 0,-6.35982 -2.9755,-18.08031 -7.3664,-29.01589 -2.6421,-6.58024 -3.0361,-8.309932 -1.767,-7.75728 13.9626,6.0799 31.4783,9.41534 49.4178,9.41039 18.4345,-0.005 37.1779,-3.26921 47.7064,-8.30797 2.7551,-1.31851 5.0092,-2.288502 5.0092,-2.155532 0,0.13298 -1.329,3.104802 -2.9533,6.604052 -5.4742,11.79308 -10.333,33.12609 -7.7604,34.07288 0.4325,0.15916 2.368,-4.43561 4.3011,-10.21061 12.3043,-36.757522 36.1579,-67.992167 79.3224,-103.867107 13.8461,-11.5078 19.9506,-15.53224 27.6819,-18.2496101 13.2405,-4.65363 19.9003,1.73407 24.5947,23.5897301 2.8263,13.15849 3.54,42.1758 1.4299,58.137885 -3.2032,24.231562 -8.2371,38.296732 -20.941,58.510752 -3.6714,5.8419 -6.6753,10.97415 -6.6753,11.40498 0,1.39851 4.1711,-2.86054 10.3093,-10.52664 l 6.0052,-7.5 -0.6084,12.5 c -0.9792,20.11829 -6.7366,37.36322 -16.6309,49.81402 l -4.2229,5.31402 -6.064,-6.61777 c -7.3971,-8.07264 -27.6988,-23.48398 -38.5452,-29.26027 -8.3716,-4.45831 -13.7936,-5.97017 -6.5436,-1.8246 16.4542,9.40857 39.3301,30.526 49.9211,46.08373 10.1613,14.92652 14.9811,26.14828 21.9007,50.99087 5.3854,19.33425 11.1405,32.93261 19.0067,44.90941 l 1.9109,2.90942 -11.4695,-0.53067 c -12.8235,-0.59331 -13.9694,-0.40966 -13.9694,2.23871 0,1.66879 2.3529,3.99454 9.9338,9.81927 l 2.4339,1.87001 -8.4339,1.20725 c -11.3056,1.61831 -29.1582,7.66786 -42.7616,14.49023 -7.5953,3.80919 -12.3372,5.58825 -14.9056,5.59227 -7.9096,0.0124 -23.9308,3.12712 -34.8749,6.78017 l -11.3917,3.80244 v -2.3258 c 0,-1.27919 0.9255,-5.07306 2.0566,-8.43082 5.7556,-17.08522 20.4262,-29.8976 41.1224,-35.91361 13.5996,-3.95319 40.8878,-3.60497 54.5754,0.69642 1.5507,0.48732 1.5375,0.37829 -0.1181,-0.97644 -3.0715,-2.5133 -19.3681,-5.83749 -31.1363,-6.35119 -14.3622,-0.62692 -26.0878,1.85461 -39.4282,8.34434 -14.9233,7.25975 -24.6107,18.10221 -29.739,33.28465 l -2.1672,6.41606 -1.6417,-3.91606 c -4.6265,-11.03616 -11.686,-30.99106 -13.0604,-36.91705 -2.0618,-8.89035 -2.3009,-18.19923 -0.5727,-22.29617 2.1294,-5.04775 5.3991,-6.19559 17.4397,-6.12207 8.5617,0.0523 11.3637,-0.32382 15.4234,-2.07024 6.5804,-2.83083 11.4649,-8.02358 16.0091,-17.01942 4.003,-7.92459 4.4824,-8.25902 13.6076,-9.49182 2.6789,-0.36191 4.4789,-1.01786 4,-1.45768 -0.4788,-0.43981 -5.8206,-2.52209 -11.8706,-4.62729 -9.6864,-3.37055 -12.1345,-3.83281 -20.5,-3.87098 -10.5001,-0.0479 -15.6191,1.61086 -22.9921,7.45039 -12.1623,9.63272 -19.6317,32.21507 -17.0565,51.56686 1.2551,9.43167 2.9031,14.96037 11.3092,37.93941 7.9139,21.63385 7.8941,19.5526 0.2316,24.35696 -3.5707,2.23884 -6.4922,4.57441 -6.4922,5.19016 0,1.28597 -0.4175,1.4378 7.75,-2.8187 l 6.25,-3.25721 v 4.43403 4.43403 l -5.25,1.73386 c -5.7478,1.89828 -10.5811,4.64986 -9.0589,5.15725 0.5304,0.17678 3.7418,-0.54305 7.1366,-1.59962 6.6435,-2.06771 7.127,-1.77195 5.2354,3.20314 -0.8021,2.10978 -1.9519,2.63531 -7.9964,3.65485 -9.7456,1.64381 -10.5643,3.51072 -1.1951,2.72524 l 7.1851,-0.60238 -2.0606,2.89391 c -6.6512,9.34065 -15.832,13.52346 -29.4961,13.43856 -17.3238,-0.10765 -21.6336,-5.11425 -9.6041,-11.15685 3.5178,-1.76702 7.4991,-4.24202 8.8473,-5.5 5.8853,-5.49115 8.8484,-16.80865 5.8958,-22.51847 -2.3732,-4.58912 -8.2936,-8.98641 -13.9147,-10.33489 -7.9085,-1.89721 -22.5021,-0.75832 -27.8066,2.17004 -9.519,5.25502 -11.4493,13.83099 -5.6393,25.05445 3.0898,5.9686 3.7373,6.56981 11.25,10.44561 10.7549,5.54841 11.1085,8.34373 1.3829,10.93211 -6.4904,1.72738 -14.766,1.74171 -20.9113,0.0362 z m 191.8889,-111.13915 c -3.9783,-6.60024 -15.6339,-18.01546 -23.5942,-23.10759 -5.2362,-3.34955 -12.0964,-6.20473 -18.5447,-7.71821 -4.2974,-1.00862 -3.2239,0.91614 1.3534,2.4268 8.1537,2.69094 28.3982,18.07672 38.4436,29.21706 2.7242,3.02102 5.128,5.33788 5.3419,5.14856 0.2139,-0.18932 -1.1361,-2.8743 -3,-5.96662 z m -299.8932,-17.09719 c 4.6774,-3.53576 11.7962,-8.02836 15.8197,-9.98355 4.0235,-1.95518 7.0849,-3.78542 6.8031,-4.06718 -1.0389,-1.03893 -14.315,3.76644 -20.5348,7.4327 -7.6746,4.5238 -19.634,15.86675 -23.9631,22.72786 -1.7163,2.72018 -3.1206,5.30594 -3.1206,5.74614 0,0.44019 3.7106,-2.85087 8.2457,-7.31348 4.5352,-4.46261 12.0727,-11.00673 16.75,-14.54249 z m 98.9896,-24.8885 c -1.6149,-5.76792 -7.5547,-15.06147 -12.0615,-18.87199 -1.8831,-1.59211 -6.1341,-4.16752 -9.4468,-5.72312 -6.5538,-3.07764 -16.3216,-5.02784 -15.0743,-3.00968 0.3934,0.63654 1.489,1.15734 2.4345,1.15734 0.9456,0 5.0044,1.57438 9.0196,3.49863 9.5311,4.56763 18.0805,13.00589 22.2889,21.99908 3.477,7.43007 4.7756,7.86441 2.8396,0.94974 z m 90.7008,-12.47513 c 3.9682,-4.28616 7.7365,-7.06071 13.5233,-9.95709 4.4122,-2.20838 8.8435,-4.01523 9.8474,-4.01523 1.0038,0 2.1447,-0.51699 2.5352,-1.14886 1.1501,-1.86094 -8.9517,-0.10908 -15.1322,2.62422 -7.6684,3.39133 -14.7791,10.44059 -18.9585,18.79458 -1.9257,3.84933 -3.4771,8.17581 -3.4475,9.61442 0.043,2.06298 0.6959,1.28601 3.0925,-3.67726 1.6713,-3.4611 5.5142,-8.96675 8.5398,-12.23478 z m -138.4407,-82.06755 c -18.3683,-6.24358 -34.9926,-20.00165 -43.0827,-35.65477 -2.3452,-4.5375 -4.0706,-8.25 -3.8342,-8.25 0.2364,0 2.8467,1.10379 5.8006,2.45287 11.203,5.11643 24.8709,7.24895 24.8709,3.88046 0,-1.634 -3.517,-5.24865 -21.73,-22.333332 -5.3153,-4.98607 -11.0051,-11.52856 -13.7632,-15.82592 -5.2587,-8.193335 -10.0648,-20.361415 -11.0875,-28.071045 -1.0949,-8.25372 -2.7785,-6.1742 -2.1715,2.68212 1.1062,16.1391 8.9008,31.201825 23.4232,45.264237 4.8559,4.70217 10.404,9.75968 12.329,11.23891 1.925,1.47924 2.9478,2.69451 2.2728,2.70061 -2.0565,0.0186 -14.306,-4.85664 -20.1338,-8.01311 -7.824,-4.23766 -8.3457,-4.05515 -6.5015,2.2742 7.6245,26.16663 27.5966,45.0595 52.4377,49.60411 6.4466,1.1794 7.1123,0.0704 1.1702,-1.94934 z m 182.7546,0.41536 c 19.7687,-5.38973 37.5522,-23.23652 45.0244,-45.18464 1.3193,-3.87514 2.0675,-7.37686 1.6628,-7.78161 -0.4048,-0.40475 -4.4375,1.11474 -8.9616,3.37665 -4.5241,2.2619 -10.7006,4.81189 -13.7256,5.66665 l -5.5,1.5541 5,-4.14077 c 9.1032,-7.53886 20.9447,-20.395712 24.7756,-26.900072 2.0765,-3.525735 4.8528,-9.806335 6.1694,-13.956885 2.7707,-8.73488 4.4143,-21.95355 2.7295,-21.95355 -0.5961,0 -1.3495,1.6875 -1.6742,3.75 -1.1728,7.44963 -5.6794,19.88931 -9.6114,26.53056 -4.7663,8.050355 -12.8386,16.888755 -25.2891,27.689257 -5.0049,4.34163 -9.9149,9.27809 -10.911,10.96992 -1.7104,2.90483 -1.7146,3.11312 -0.076,3.74189 2.7262,1.04615 14.2992,-1.32315 22.2323,-4.55156 7.0458,-2.86733 7.2138,-2.88737 6.5887,-0.78621 -2.1601,7.26105 -13.8978,22.69047 -21.7271,28.56064 -6.4248,4.81708 -16.491,10.25425 -23.4566,12.66991 -2.8875,1.00138 -5.25,2.17053 -5.25,2.59813 0,0.91075 4.2996,0.24703 12,-1.85241 z m -15.6202,-41.60741 c 6.5483,-27.173112 23.0429,-53.123407 52.6066,-82.763997 11.0175,-11.04605 16.0723,-15.3643 20.9845,-17.92637 8.2202,-4.2875 6.2626,-5.19046 -2.3459,-1.08203 -9.4733,4.5212 -16.8713,10.49365 -30.631,24.7286 -25.067,25.93291 -37.8381,46.926805 -44.0348,72.387157 -1.8798,7.72328 -2.2981,12.19058 -2.2959,24.51923 0,19.77827 1.6091,22.4867 2.519,4.24946 0.4543,-9.10486 1.5229,-17.1633 3.1975,-24.11205 z m -153.6399,17.60755 c -0.5643,-18.27143 -1.9827,-25.6014 -7.7333,-39.962652 -11.1308,-27.798045 -46.2998,-68.377885 -68.4784,-79.014135 -8.6343,-4.14079 -11.9715,-4.37842 -4.6258,-0.32938 11.5773,6.38153 25.1015,19.1584 41.2662,38.9859 25.9121,31.783525 35.555,54.478427 37.5161,88.294657 0.4063,7.00726 0.9678,10.45278 1.6004,9.82027 0.5975,-0.59754 0.7734,-7.47972 0.4548,-17.79466 z m 70.0978,257.92692 c -3.427,-1.35853 -3.5999,-1.63097 -2.6906,-4.23938 2.1705,-6.22635 -3.7631,-12.88922 -8.9882,-10.09284 -3.198,1.71152 -3.8903,1.33047 -4.6166,-2.54127 -1.5958,-8.50612 4.7459,-13.48493 18.0668,-14.1841 9.3538,-0.49094 16.7201,1.40299 20.307,5.22113 1.7702,1.88426 2.1425,3.30334 1.8937,7.21734 -0.3257,5.12192 -0.3558,5.14162 -5.8537,3.82622 -1.7415,-0.41666 -3.3187,0.0191 -5,1.3814 -2.0493,1.66043 -2.444,2.83263 -2.3831,7.07718 0.04,2.79792 -0.017,5.08713 -0.1278,5.08713 -0.1106,0 -1.7184,0.60728 -3.5731,1.34951 -2.8654,1.14671 -3.9225,1.13133 -7.0344,-0.10232 z m -11.2558,-6.15662 c -1.6478,-1.82088 -1.626,-1.94179 0.4699,-2.60702 2.3998,-0.76167 4.1159,0.91587 3.2487,3.17577 -0.7034,1.833 -1.6802,1.68359 -3.7186,-0.56875 z m 26.7626,0.36486 c -0.7827,-2.03973 1.0577,-3.8988 3.0883,-3.1196 2.1187,0.81302 1.9709,1.93095 -0.4555,3.44627 -1.6959,1.05908 -2.1213,1.0063 -2.6328,-0.32667 z m 49.6555,-16.88173 v -5.15776 l 8.75,-3.23123 c 8.5945,-3.17382 21.9404,-6.36729 31.6876,-7.58236 l 4.9376,-0.61552 -7.4376,5.12166 c -4.0907,2.81692 -10.2014,7.31988 -13.5794,10.00659 -5.4096,4.30253 -6.721,4.89011 -11,4.92847 -2.672,0.024 -6.7707,0.41353 -9.1082,0.86573 l -4.25,0.82217 z m -133.995,3.67954 c -6.2681,-0.34877 -6.8094,-0.59971 -15.5,-7.18557 -4.9527,-3.75331 -10.9267,-8.06982 -13.2753,-9.59227 -2.3487,-1.52244 -4.1487,-2.88591 -4,-3.02992 0.5588,-0.54131 19.3581,2.61504 25.1935,4.22992 3.3422,0.92493 9.0018,2.84425 12.5768,4.26514 l 6.5,2.58346 0.3048,4.738 c 0.2982,4.63531 0.244,4.73382 -2.5,4.54532 -1.5427,-0.10597 -5.7275,-0.35531 -9.2998,-0.55408 z m -0.8222,-95.79953 c -7.2399,-3.67572 -10.4685,-8.62274 -10.4685,-16.04021 0,-7.21194 1.4468,-8.65287 9.2554,-9.21769 3.3167,-0.23991 6.0303,-0.20854 6.0303,0.0697 0,0.27824 -0.6722,1.79482 -1.4939,3.37019 -2.1774,4.17508 -1.9118,12.64874 0.5476,17.46958 1.1295,2.21408 2.592,3.85059 3.25,3.6367 2.7016,-0.87824 6.0171,-8.97881 6.0975,-14.89784 0.044,-3.21427 0.3088,-5.82991 0.5891,-5.81253 0.8822,0.0547 5.4158,4.35203 7.7597,7.35521 3.5814,4.58886 2.6004,11.66426 -2.0172,14.54797 -1.1687,0.72985 -4.8491,1.52758 -8.1788,1.77273 -5.1334,0.37795 -6.8626,0.0352 -11.3712,-2.2538 z m 129.1459,1.08853 c -5.6336,-2.4506 -7.0471,-9.02574 -3.2582,-15.15631 1.714,-2.77337 6.7828,-7.40109 8.0839,-7.38045 0.1901,0.003 0.3642,2.81552 0.3869,6.25 0.031,4.68112 0.6404,7.30856 2.4341,10.49452 1.3161,2.3375 2.9337,4.25 3.5948,4.25 1.7572,0 4.699,-6.79935 5.2042,-12.02854 0.2725,-2.82135 -0.1679,-5.97753 -1.1685,-8.37213 -0.8832,-2.11397 -1.6059,-4.06771 -1.6059,-4.34164 0,-0.27394 2.7605,-0.2984 6.1344,-0.0543 7.3867,0.53431 8.8656,2.05254 8.8656,9.10164 0,10.88295 -9.0947,18.777 -21.4934,18.65588 -2.2036,-0.0215 -5.4337,-0.65991 -7.1779,-1.41862 z"
       id="path1"
       sodipodi:nodetypes="sssscssssssssssssssssssscssssssscsssssscssssssssscscssssscssssssscssssssssssssscsssssssssssssssssscssssssssssssscssssssssssscssssscssscssssssssssssssssssscsssssssssssssssscssssssssssscssscssssssscssscssssscsssssssscsssscssssssssssscssssssssscssssscssssssscsscssssssssssscssssssssssssssssssssscsssssssssscsssssssscssssssssssssscsssssscssssssssssscssscssssssscssssscsssssscssssssssssssscsscsssssscssscsssscsssssssscsssssssssssssssscccsssssscssssssssssssssssssssssssssssssssssssssssscssssssssssssssscssssssscsssssssssssssssssssssscsssssssssssssssssssssssssssssssccsscssssccsssssscssssssscsscssssssssssssssssssss" />
  </g>
</svg>
