<?xml version="1.0" encoding="UTF-8" standalone="no"?>
<!-- Created with Inkscape (http://www.inkscape.org/) -->

<svg
   version="1.1"
   id="svg1"
   width="768"
   height="1376"
   viewBox="0 0 768 1376"
   xmlns="http://www.w3.org/2000/svg"
   xmlns:svg="http://www.w3.org/2000/svg">
  <defs
     id="defs1" />
  <g
     id="g1">
    <path
       style="fill:#EDEDFF"
       d="m 83.131334,604.22564 c 7.9831,-12.7295 16.912996,-20.415 29.247196,-25.17158 12.5124,-4.82528 20.1857,-6.26631 33.2169,-6.23803 14.344,0.0311 21.4031,1.31974 58.3081,10.64401 35.8813,9.0656 48.5871,10.9869 67.8313,10.257 7.7927,-0.2956 17.3187,-1.2279 21.1687,-2.0718 8.3038,-1.8202 23.129,-6.9411 29.6571,-10.24417 5.0094,-2.5347 17.0471,-11.25245 20.389,-14.76579 15.0117,-15.78204 22.4539,-33.15514 22.4539,-52.41671 0,-15.04644 -3.7776,-26.5299 -12.537,-38.11098 -6.2061,-8.20537 -13.9061,-14.34558 -24.1104,-19.22643 -10.7879,-5.15998 -14.1026,-4.98926 -3.8526,0.19843 14.5509,7.3645 23.5255,15.69677 29.7865,27.65477 4.976,9.50377 6.9135,17.01173 6.9135,26.79062 0,14.91201 -6.1415,28.39796 -18.6853,41.03093 -12.8358,12.92699 -29.1607,20.21965 -50.5147,22.56588 -8.828,0.96995 -12.2187,0.8959 -21.2929,-0.46503 -21.4012,-3.20971 -40.7384,-11.36671 -72.7071,-30.66994 -31.2058,-18.84251 -44.0239,-24.00263 -59.6246,-24.00263 -8.3587,0 -20.568,2.88459 -21.9972,5.19707 -0.4927,0.7972 -0.1275,0.89769 1.2077,0.33228 9.8913,-4.18862 25.5592,-4.41772 37.4141,-0.54707 9.8012,3.20014 24.746,10.86803 42,21.54939 17.4417,10.79762 39.7504,22.06244 51.0404,25.77296 30.8429,10.13662 59.6646,7.55176 83.6191,-7.49946 7.5832,-4.76474 17.5667,-15.26738 22.6773,-23.85666 4.6433,-7.80388 3.8604,-4.16918 -1.1958,5.55149 -2.6287,5.05365 -6.4215,9.79094 -13.641,17.03757 -11.4131,11.45597 -18.03,15.43648 -34.6851,20.86568 -14.6226,4.7666 -23.1967,6.0489 -39.8149,5.9545 -17.508,-0.099 -29.4877,-2.0948 -60,-9.99421 -11.825,-3.0614 -24.1782,-6.21151 -27.4515,-7.00024 -19.5162,-4.70265 -39.9467,-5.25753 -54.345,-1.47597 -19.6851,5.17007 -31.073096,13.12942 -40.344796,28.19772 -3.3348,5.4198 -3.6922,5.7146 -4.2472,3.5035 -0.7866,-3.1341 0.1564,-15.2051 1.882,-24.09119 4.2347,-21.80639 17.4117,-42.47924 35.140296,-55.13009 8.3591,-5.96495 25.3497,-13.93337 34.9383,-16.38572 19.804,-5.06502 39.0602,-4.39335 74.4279,2.59608 33.9751,6.71425 48.045,6.43684 63.3293,-1.24864 13.7496,-6.9138 21.6014,-17.69488 22.3886,-30.74126 0.3115,-5.16368 0.1406,-6.68054 -0.6298,-5.58773 -0.5817,0.825 -1.0644,2.94562 -1.0728,4.71249 -0.048,10.09338 -8.8739,22.15009 -20.3178,27.75571 -14.9082,7.30257 -29.7761,8.10357 -55.4944,2.98972 -28.4453,-5.65608 -34.2038,-6.5608 -45.4741,-7.1445 -11.5998,-0.60076 -11.7452,-0.63805 -10.0024,-2.5639 5.1026,-5.63832 13.1603,-6.63482 30.9566,-3.82844 7.2507,1.14341 14.9007,2.03241 17,1.97557 l 3.8168,-0.10335 -3.5,-0.84367 c -5.458,-1.3156 -18.8372,-3.96102 -26,-5.14084 -9.7368,-1.60378 -16.5719,0.10166 -22.7809,5.68406 -4.3462,3.90761 -5.5333,4.43749 -11.2881,5.03845 -26.0708,2.72254 -53.048,16.72033 -69.131996,35.871 -6.9682,8.29669 -15.0312,24.16768 -17.831,35.0977 -1.127,4.4 -2.3186,12.30075 -2.6479,17.55715 -0.598,9.5454 0.2202,20.9505 1.5018,20.9343 0.3729,0 2.5806,-3.0422 4.9059,-6.75 z m 307.272196,-7.6157 c 0,-0.2059 -0.675,-2.2874 -1.5,-4.6257 -3.7767,-10.70429 -0.6649,-22.07012 8.2326,-30.06973 6.252,-5.62115 13.1542,-9.32256 29.5916,-15.86904 14.5079,-5.77799 23.1215,-9.94477 29.6758,-14.35542 19.4796,-13.10874 30.6787,-30.29564 33.9946,-52.17029 4.0974,-27.03124 -10.1148,-57.0248 -32.5868,-68.77151 -9.292,-4.85712 -16.9496,-6.76406 -27.1624,-6.76406 -11.6641,0 -19.8009,2.34933 -34.2454,9.88769 -21.5215,11.23168 -29.8284,15.11061 -39.3108,18.35637 -8.695,2.97628 -10.0147,3.14842 -24.5374,3.20069 -14.2813,0.0514 -15.0459,0.1469 -11,1.37382 2.9893,0.9065 8.2546,1.18671 16.8482,0.89664 15.4763,-0.5224 24.7754,-3.37274 45.5,-13.94655 7.7,-3.92859 17.0027,-8.64992 20.6727,-10.49185 32.0254,-16.073 67.8982,-0.0209 79.8335,35.72319 3.3351,9.9882 3.8493,26.17988 1.1679,36.7831 -2.78,10.9935 -6.9036,19.32225 -13.5411,27.35012 -9.9799,12.07037 -21.7801,19.93204 -41.8892,27.90785 -20.6306,8.18265 -28.3364,12.46584 -35.8263,19.91354 -4.7557,4.72881 -7.0453,7.91313 -8.25,11.47353 -1.8619,5.50259 -2.1718,13.11541 -0.6923,17.00681 1.4446,3.7994 -0.1995,3.1304 -4.937,-2.0093 -6.1354,-6.65613 -8.3208,-12.27398 -8.8464,-22.74156 -0.3848,-7.66084 -0.079,-9.9347 2.3349,-17.35486 3.7401,-11.49759 9.6688,-20.14731 24.9007,-36.32923 19.5073,-20.72398 23.173,-27.2293 22.3781,-39.71355 -0.7606,-11.94399 -9.2539,-19.39829 -22.1871,-19.47291 -3.6402,-0.021 -6.6184,-0.15234 -6.6184,-0.29187 0,-0.85727 12.416,-4.54699 17,-5.05196 4.5594,-0.50226 6.2681,-0.20945 9.9919,1.71221 10.7555,5.55042 12.9657,17.8635 5.4475,30.34857 -3.9085,6.49077 -3.9597,8.32929 -0.091,3.25675 6.5851,-8.63343 8.4886,-19.267 4.7577,-26.57708 -2.3875,-4.67804 -4.4963,-6.58035 -10.1244,-9.13321 -8.0764,-3.66343 -15.1413,-2.37497 -33.1268,6.04148 -17.3821,8.13407 -27.9258,8.54331 -47.6154,1.84814 -4.5432,-1.54483 -8.0392,-2.45098 -7.7689,-2.01367 1.0872,1.75914 12.3011,6.2688 20.4134,8.20925 11.0704,2.64801 19.5335,2.08635 32.7425,-2.17301 8.2054,-2.64593 10.9884,-3.10718 16.4749,-2.73057 10.4844,0.71969 16.2332,5.60945 17.5051,14.8893 1.4149,10.32247 -4.0951,20.13427 -21.5372,38.35213 -12.7888,13.3576 -16.1548,17.62476 -20.9035,26.5 -5.1472,9.61988 -7.1918,16.87438 -7.3582,26.1072 -0.2479,13.75592 4.8817,24.69605 14.9648,31.91645 4.9895,3.5729 7.2273,4.6882 7.2273,3.6021 z m -114.5,-58.57058 c 15.9444,-4.09307 29.8314,-13.29147 37.4647,-24.81567 8.4593,-12.77114 9.4176,-34.76006 1.9295,-44.27206 -1.8496,-2.34948 -1.8431,-2.20816 0.1355,2.95617 4.1964,10.95298 3.5912,23.6194 -1.6633,34.81024 -3.7308,7.94583 -14.8824,18.96702 -23.3664,23.09321 -11.9745,5.82376 -20.553,7.51705 -38.5,7.59946 -21.8006,0.10012 -27.1662,-1.1205 -67.5,-15.35546 -6.325,-2.23227 -12.625,-4.02887 -14,-3.99245 -1.375,0.0364 1.325,1.32061 6,2.85372 4.675,1.53312 14.125,5.05544 21,7.82738 22.6738,9.14191 38.6213,12.37278 58,11.75052 8.1495,-0.26169 15.2842,-1.11614 20.5,-2.45506 z m -173.7563,-23.90491 c 0.9659,-1.29236 3.9654,-3.58824 6.6654,-5.10196 7.045,-3.94969 9.4002,-6.58407 11.0916,-12.4067 7.8749,-27.10997 1.949,-74.74216 -12.5993,-101.27291 -5.4393,-9.91921 -7.513096,-11.11122 -2.8569,-1.64207 10.6341,21.62594 16.2997,50.61823 15.3937,78.77338 -0.4326,13.44115 -2.5177,24.74802 -5.2559,28.5 -1.0035,1.375 -3.2235,3.21506 -4.9333,4.08901 -10.689396,5.46385 -14.110896,11.67408 -11.520696,20.91099 0.5565,1.98457 0.8617,1.26297 1.4801,-3.5 0.428496,-3.3 1.569396,-7.05738 2.535296,-8.34974 z m 388.8133,-12.33255 c 11.7472,-12.38671 18.3918,-24.25307 22.0853,-39.44139 2.2033,-9.06028 2.2188,-26.63077 0.031,-35.61728 -6.9626,-28.60507 -27.4915,-49.56369 -56.2503,-57.42769 -8.4144,-2.30091 -11.8242,-2.7054 -22.4234,-2.65999 -7.9078,0.0339 -14.4288,0.60134 -17.75,1.54461 -2.8875,0.82008 -5.25,1.19119 -5.25,0.8247 0,-0.3665 1.1755,-3.10321 2.6124,-6.08158 1.4368,-2.97837 5.3142,-12.85009 8.6165,-21.93716 7.4043,-20.3749 10.6512,-26.91041 16.4489,-33.10861 6.3906,-6.83203 13.0133,-9.91586 21.2685,-9.90355 15.9531,0.0238 26.7959,11.40874 27.852,29.2446 0.662,11.18032 -2.4443,21.19844 -9.3974,30.30753 -1.9458,2.54904 -3.3941,4.77826 -3.2186,4.95382 0.9769,0.97686 11.2976,-1.98879 17.479,-5.02256 13.2107,-6.48378 25.47,-22.50472 29.8375,-38.99316 2.0714,-7.81981 2.0839,-23.21823 0.025,-31 -6.2872,-23.76566 -25.8484,-44.02729 -49.9409,-51.72898 -4.1458,-1.3253 -10.2373,-2.11555 -19.1265,-2.48127 -11.1828,-0.46008 -14.2445,-0.23288 -21.4644,1.59288 -25.1529,6.36062 -42.9741,21.73011 -55.032,47.46103 -5.1159,10.91701 -8.5306,24.49093 -11.0844,44.06194 -2.7574,21.13112 -6.7118,36.61495 -12.2521,47.97474 -7.7565,15.9036 -21.0045,31.56308 -32.419,38.32006 -2.3623,1.39842 -4.0623,2.77542 -3.7777,3.05999 1.0886,1.08864 12.1854,-6.57237 19.6918,-13.59486 8.761,-8.19624 14.8571,-16.74955 20.8466,-29.24948 5.2085,-10.86994 8.2166,-22.96489 11.5511,-46.44361 3.2454,-22.85184 5.9234,-32.75953 12.4259,-45.97244 11.0873,-22.52922 25.768,-34.67503 51.0575,-42.24144 0.825,-0.24683 -2.1,1.36299 -6.5,3.57739 -19.3604,9.74354 -33.0122,26.58479 -39.867,49.18109 -2.6536,8.74758 -4.2691,17.51468 -7.1529,38.81778 -2.7773,20.51667 -7.58,35.48041 -15.5397,48.41652 -3.6267,5.89408 -3.3599,7.49206 0.3219,1.92844 8.2498,-12.46617 14.4103,-29.13759 17.1908,-46.52127 0.8057,-5.03718 2.3826,-14.84597 3.5041,-21.79731 2.4541,-15.21051 5.0232,-23.87092 10.0448,-33.8612 11.6142,-23.10586 30.5347,-36.97016 54.6784,-40.06646 7.6717,-0.98386 10.3295,-0.91733 16.9586,0.42449 31.8835,6.45376 56.0125,37.01816 54.1001,68.52909 -1.347,22.1943 -15.7431,43.25488 -34.3847,50.30268 l -4.1457,1.56733 3.8639,-8.12857 c 4.7004,-9.88822 6.1976,-18.23814 4.8194,-26.87856 -2.7909,-17.49701 -15.148,-29.18125 -30.913,-29.22988 -5.3736,-0.0166 -7.6936,0.55714 -13.1848,3.26045 -12.2711,6.04101 -18.8161,16.06037 -28.322,43.35616 -8.9767,25.77616 -16.4225,38.79361 -29.9464,52.3545 -16.7421,16.78794 -39.8947,29.48396 -63.0258,34.56092 l -9,1.97537 7,-0.45345 c 27.0818,-1.75435 63.3084,-24.07959 80.3838,-49.53795 6.5034,-9.69612 3.8583,-8.68717 25.3231,-9.65927 25.2575,-1.14388 45.7078,6.2332 61.075,22.03172 14.8024,15.21777 21.3706,33.27811 20.3993,56.09143 -0.9584,22.51025 -8.208,38.62207 -25.2939,56.21428 -4.063,4.18339 -7.3873,7.78971 -7.3873,8.01404 0,1.14198 6.4025,-4.42104 12.557,-10.91061 z m -358.6801,-5.10511 c 6.0689,-18.97291 8.6901,-39.39736 7.8311,-61.02019 -0.6966,-17.5358 -2.5166,-25.18171 -11.2056,-47.07383 -9.8616,-24.84683 -10.7329,-35.69829 -4.0401,-50.31727 3.4117,-7.4522 2.6215,-7.82027 -1.2219,-0.56915 -4.0607,7.66123 -5.3516,12.90068 -5.3516,21.72228 0,8.80121 1.9436,16.7506 7.1592,29.28251 10.3714,24.92007 13.3929,43.68566 11.0813,68.82379 -1.5455,16.80691 -5.9254,40.53208 -8.9266,48.3533 -0.3379,0.88058 -0.1144,1.14942 0.5923,0.7126 0.6243,-0.3858 2.4611,-4.84712 4.0819,-9.91404 z m 22.4375,-7.4626 c 1.4464,-4.8125 3.7874,-13.475 5.2023,-19.25 2.2317,-9.10919 6.9935,-24.35336 10.3899,-33.26216 l 1.0531,-2.76216 6.2016,4.99733 c 3.4109,2.74853 6.4575,4.73151 6.7702,4.40663 0.3126,-0.32489 -2.2082,-3.15372 -5.6019,-6.28631 l -6.1703,-5.69561 3.463,-7.94886 c 6.0384,-13.86018 6.0805,-14.51876 1.7293,-27.02712 -3.4789,-10.00072 -3.7968,-11.8072 -3.7701,-21.42174 0.023,-8.39029 0.4653,-11.59311 2.2001,-15.9404 3.124,-7.8288 1.8158,-7.56088 -1.9049,0.39012 -5.2894,11.30318 -5.067,24.35425 0.6551,38.43626 2.8644,7.04939 3.1448,12.90492 0.832,17.37723 -3.3508,6.4799 -12.1755,29.58674 -15.1757,39.73679 -3.6212,12.2512 -10.1929,43 -9.1901,43 0.3777,0 1.8701,-3.9375 3.3164,-8.75 z m 86.6022,7.34186 c -0.2291,-0.22448 -3.0502,-1.33161 -6.269,-2.46029 -13.2389,-4.64226 -31.4791,-19.25161 -37.9927,-30.42995 -14.0743,-24.15382 -7.1911,-54.73352 14.6453,-65.06378 8.0708,-3.8181 14.5932,-4.853 22.5623,-3.57993 11.8629,1.89512 20.4937,6.8306 27.2428,15.57868 4.7126,6.10836 6.2954,6.53818 2.6068,0.70789 -11.2624,-17.80182 -34.0188,-25.00497 -52.1668,-16.51251 -11.8212,5.53181 -20.4075,15.64918 -23.9054,28.16803 -5.1513,18.43611 -0.3005,36.66537 13.7643,51.72583 8.4208,9.01681 16.4613,14.64951 27.0958,18.98162 6.6616,2.71372 13.9773,4.41317 12.4166,2.88441 z m 69.7237,-39.33711 c 1.8341,-12.19725 1.6798,-20.15195 -0.6513,-33.57671 -5.53,-31.84636 -22.3184,-60.9275 -46.6517,-80.81097 -3.9597,-3.23561 -14.993,-10.8696 -24.5184,-16.96442 -9.5254,-6.09483 -19.5689,-12.77122 -22.3189,-14.83642 -26.2184,-19.68953 -37.4949,-42.76985 -37.4987,-76.75085 -8e-4,-6.96295 -0.641,-15.22567 -1.4941,-19.28081 -3.4488,-16.39512 -11.8541,-32.16032 -22.9644,-43.07237 -8.3425,-8.19374 -10.7266,-9.13647 -3.7249,-1.47294 28.9125,31.64535 33.0406,76.56226 9.881,107.51074 -2.2637,3.025 -10.255,11.82029 -17.7586,19.5451 -20.1999,20.79553 -27.2767,31.26434 -30.5579,45.20488 -1.7109,7.26903 -1.4176,19.68719 0.542,22.94336 0.8145,1.35349 0.9309,-0.0809 0.4638,-5.71856 -1.0462,-12.62917 2.1794,-23.52102 10.7057,-36.14976 2.3487,-3.47876 11.2948,-13.52502 19.8802,-22.32502 8.5854,-8.8 17.0018,-17.8 18.7032,-20 5.3145,-6.87192 10.6129,-16.7025 12.9314,-23.99255 1.6957,-5.33184 2.2522,-6.29009 2.3273,-4.00745 0.2148,6.53153 3.2605,17.41889 7.1334,25.5 8.0137,16.72112 18.1766,27.37155 39.6191,41.51962 8.1463,5.37507 19.2921,12.73246 24.7685,16.34974 23.8162,15.73117 42.3132,39.28463 51.5001,65.57851 6.2479,17.88223 7.4505,25.2141 7.4988,45.7189 0.024,10.26673 0.2294,18.48137 0.456,18.25475 0.2265,-0.22661 1.0043,-4.35166 1.7284,-9.16677 z m 20.162,-38.23875 c 10.3974,-4.0097 19.3,-9.64928 35.8402,-22.7039 17.3057,-13.6589 18.2622,-14.31679 27.9365,-19.21653 9.2861,-4.70313 8.3786,-5.45652 -1.2914,-1.07197 -7.652,3.4696 -20.9648,12.32681 -36.7177,24.42884 -12.8474,9.86989 -23.5158,16.18518 -32.5557,19.27174 -4.5987,1.57015 -5.6961,2.23178 -3.732,2.25 1.5303,0.0142 6.2643,-1.31698 10.5201,-2.95818 z m -206.477,-17.16822 c -1.855,-3.41402 -6.0881,-8.09636 -12.3253,-13.63346 -10.3551,-9.19262 -15.733396,-15.19674 -19.745996,-22.04375 -3.5797,-6.10838 -7.254,-16.57156 -7.254,-20.65704 0,-1.86752 -0.4134,-3.65098 -0.9187,-3.96324 -1.1023,-0.6813 -2.0194,3.15798 -2.9165,12.21032 l -0.6648,6.70892 -3,-8.48477 c -2.7162,-7.68188 -2.9945,-9.62027 -2.9419,-20.48476 0.053,-10.82425 0.3569,-12.80833 3.1066,-20.25 1.6767,-4.5375 2.7283,-8.25 2.3369,-8.25 -0.3913,0 -3.083,2.50745 -5.9814,5.57212 l -5.2699,5.57212 0.7159,-3.81619 c 1.3102,-6.98392 5.4288,-15.48832 12.94,-26.71984 9.5109,-14.22166 12.7075,-20.43784 13.3244,-25.91109 0.7124,-6.31975 -2.3638,-12.76375 -7.8167,-16.37445 -4.0328,-2.67041 -4.8602,-2.82267 -15.3383,-2.82267 -6.0916,0 -14.7269,0.39709 -19.1894,0.88242 -9.7113,1.05614 -16.1204,-0.19375 -22.8378,-4.45383 l -4.5754,-2.90164 2.0534,-2.05341 c 2.063,-2.06303 4.3697,-6.91071 3.637,-7.64344 -0.2159,-0.21588 -1.0975,0.68339 -1.9591,1.99838 -0.8616,1.31499 -2.3593,3.18358 -3.3281,4.15242 -1.682,1.68203 -1.8431,1.6608 -3.5689,-0.47047 -0.994,-1.2276 -1.8057,-2.74465 -1.8036,-3.37121 0,-0.62657 3.0395,-2.69586 6.75,-4.59842 21.6724,-11.11268 24.6745,-13.85943 32.2073,-29.46798 7.4629,-15.46381 13.1782,-20.93714 30.289,-29.00642 3.1625,-1.4914 5.75,-3.15929 5.75,-3.70641 0,-1.13996 -2.0869,-0.60583 -10.2132,2.61406 l -5.7132,2.26372 -1.5412,-4.63997 c -2.8101,-8.46042 -4.4975,-18.49426 -4.5151,-26.8478 -0.01,-4.5375 0.3364,-8.25 0.7687,-8.25 0.4323,0 2.2125,1.85609 3.956,4.12464 3.7245,4.84592 15.5871,14.13041 16.1379,12.63053 0.2089,-0.56903 -2.7739,-3.88455 -6.6284,-7.36783 -3.8546,-3.48328 -8.46,-8.59541 -10.2342,-11.36029 -1.7742,-2.76488 -3.5808,-5.02705 -4.0146,-5.02705 -1.5527,0 -2.2683,3.65933 -2.7374,14 -0.5175,11.40413 0.7772,18.51673 5.1844,28.48229 l 2.3532,5.32099 -5.4769,3.77205 c -7.5025,5.16718 -11.2676,10.105 -17.2129,22.57405 -6.0472,12.68288 -9.7982,16.43419 -23.4255,23.42753 -13.1401,6.74328 -14.6876,7.97212 -14.6876,11.6626 0,6.21445 13.1558,15.74804 24.6682,17.87622 4.2788,0.79099 7.8516,0.66554 15.4869,-0.54377 17.7939,-2.81828 25.7188,-1.7574 30.8929,4.13551 2.427,2.76418 2.952,4.25089 2.952,8.35944 0,6.67641 -1.336,9.55603 -12.1102,26.10218 -10.7487,16.50719 -13.997,24.60482 -14.6742,36.58091 -0.2565,4.5375 -0.1873,8.25 0.1538,8.25 0.3412,0 1.5614,-2.00209 2.7116,-4.44909 3.6097,-7.67925 4.9033,-7.60953 3.2201,0.17354 -2.7577,12.75096 0.3381,28.58746 8.5568,43.77199 3.7468,6.92235 7.1969,10.18212 5.7021,5.38744 -0.4087,-1.31113 -0.9664,-5.08388 -1.2393,-8.38388 l -0.4961,-6 3.9316,8 c 4.6625,9.48709 11.4341,17.19988 23.743796,27.0437 5.9246,4.73787 10.0251,8.92651 12,12.25815 3.8589,6.51008 4.5436,4.88912 0.8253,-1.95407 z m 196.7353,1.48138 c 5.763,-6.1976 8.8766,-10.91714 12.9483,-19.62668 7.3422,-15.70508 8.9692,-32.7015 7.0399,-73.53777 -0.9584,-20.28318 -0.9885,-29.04964 -0.126,-36.62995 3.4379,-30.21296 14.777,-49.94986 35.9098,-62.50463 3.731,-2.21657 7.059,-4.03013 7.3955,-4.03013 0.3365,0 -1.9691,2.5875 -5.1235,5.75 -19.8497,19.9002 -25.2339,49.65098 -14.9346,82.52085 1.1669,3.72396 2.3132,6.57928 2.5473,6.34515 0.2341,-0.23413 -0.8151,-5.75601 -2.3316,-12.27085 -2.3192,-9.96299 -2.7473,-13.99026 -2.6939,-25.34515 0.054,-11.54859 0.4228,-14.60728 2.5495,-21.16022 6.0378,-18.60372 19.2456,-34.41249 32.9977,-39.49576 3.2605,-1.2052 10.7179,-1.75627 31.761,-2.34699 23.1073,-0.64866 28.7778,-1.10929 35.5,-2.88375 17.857,-4.71377 31.898,-14.78018 38.7679,-27.79386 l 3.5399,-6.70569 0.8078,5.94313 c 1.0697,7.86938 0.7844,18.55716 -0.6632,24.8518 -3.3355,14.50317 -14.8852,30.0789 -27.1526,36.61734 -8.0616,4.29681 -5.9617,5.09183 2.3679,0.89646 18.424,-9.27964 30.9673,-32.30517 29.5885,-54.3149 -0.6107,-9.74728 -3.4502,-20.60756 -5.388,-20.60756 -0.7525,0 -1.3682,0.62289 -1.3682,1.3842 0,3.60263 -8.3233,17.73287 -12.785,21.70487 -15.3841,13.69558 -26.0462,16.63369 -62.9354,17.34289 -13.7996,0.2653 -26.3702,0.74891 -27.9349,1.07469 l -2.8447,0.59233 3,-1.38962 c 1.65,-0.7643 7.9723,-3.04373 14.0496,-5.06542 14.5632,-4.84461 22.2535,-9.45042 31.9644,-19.14394 19.733,-19.69776 24.9217,-45.15412 15.3377,-75.250004 -3.585,-11.25774 -5.3236,-12.00581 -6.3182,-2.71852 -0.9073,8.472544 -6.1398,19.119714 -11.7608,23.931034 -9.605,8.22158 -19.7449,10.53749 -46.1369,10.53749 -20.9184,0 -31.2806,1.06206 -44.5934,4.57055 -22.4117,5.90647 -38.4367,14.87355 -51.891,29.03662 -18.0459,18.99651 -26.1359,41.27986 -24.8301,68.39283 0.9509,19.74359 5.0821,31.69693 21.8721,63.28538 12.7049,23.90267 16.0658,31.98937 19.396,46.66872 4.4112,19.44479 3.0983,39.48941 -3.6208,55.27917 -1.5838,3.7217 -2.7173,6.76673 -2.5191,6.76673 1.0076,0 5.8001,-9.65788 8.2421,-16.60985 2.6101,-7.43039 2.7717,-8.88074 2.7742,-24.89015 0,-15.38036 -0.2527,-17.91828 -2.6781,-26.63837 -3.7977,-13.65381 -6.4676,-19.77966 -18.2593,-41.89443 -17.0784,-32.02963 -21.5284,-45.6738 -21.5284,-66.00746 0,-6.48109 0.637,-15.08589 1.4156,-19.12177 5.6643,-29.3593 26.2756,-53.40232 56.0847,-65.4223 4.8009,-1.93587 8.9194,-3.32924 9.1523,-3.09637 0.2329,0.23288 -1.8549,1.8854 -4.6395,3.67227 -6.3444,4.07117 -14.3929,12.89749 -19.2988,21.16376 -14.2022,23.93002 -13.1425,60.9341 2.5441,88.84467 3.0955,5.50767 6.7416,10.76006 6.7416,9.71164 0,-0.30694 -1.7744,-3.85512 -3.9431,-7.88486 -5.2009,-9.66404 -9.6075,-23.08716 -11.6112,-35.36961 -2.984,-18.29041 0.2185,-38.96643 8.2704,-53.3961 4.2019,-7.53003 16.7198,-20.55753 23.5556,-24.51447 2.6245,-1.51918 8.0245,-3.91185 12,-5.31704 6.7083,-2.37109 9.0626,-2.61251 32.7283,-3.35605 14.3373,-0.45045 28.4548,-1.40502 32.25,-2.18061 3.7125,-0.75869 6.75,-1.23255 6.75,-1.05302 0,0.53226 -9.5475,5.21005 -15.23,7.46196 -2.8985,1.14864 -12.92,4.06834 -22.27,6.48821 -25.2613,6.53788 -38.5942,13.93101 -48.9953,27.16814 -10.2451,13.03847 -15.5047,27.74964 -15.5047,43.36631 0,8.5241 2.6604,25.35961 4.9404,31.26419 1.9726,5.10819 1.9163,2.34197 -0.1299,-6.38869 -2.7433,-11.70483 -2.9635,-32.86146 -0.4371,-42 3.0618,-11.07552 8.2481,-19.64952 17.6081,-29.10968 11.3707,-11.49246 19.1202,-15.32119 43.3066,-21.39623 26.9084,-6.75875 38.4591,-12.27728 49.5232,-23.66056 6.3535,-6.53677 9.9268,-12.28776 12.2002,-19.63531 l 1.6839,-5.442534 1.7371,6.872154 c 6.1519,24.33789 0.9346,47.21005 -14.5514,63.79235 -8.8584,9.48545 -16.782,14.54482 -34.1064,21.77758 -7.7676,3.24289 -14.6071,6.46725 -15.1988,7.16525 -0.5918,0.698 -3.7759,2.07479 -7.0759,3.05953 -18.413,5.49457 -34.1893,18.5137 -42.8575,35.36748 -9.9872,19.4182 -12.0394,36.99404 -9.6273,82.45081 1.0273,19.35989 1.0578,27.09182 0.1404,35.55025 -2.2383,20.63729 -8.5649,36.8322 -18.7959,48.11421 -3.1948,3.52292 -4.9201,5.92104 -3.8342,5.32916 1.086,-0.59187 3.5767,-2.79926 5.5351,-4.9053 z m -8.7219,-32.32916 c 0.082,-21.25064 -3.1336,-34.95088 -12.4782,-53.16473 -7.6356,-14.88299 -15.4288,-24.46217 -39.332,-48.34607 -12.1157,-12.10594 -24.7803,-25.66558 -28.1437,-30.13253 -25.6681,-34.09088 -29.2335,-70.72963 -10.0996,-103.78388 8.1918,-14.15136 26.5057,-30.07595 43.2056,-37.568684 6.9392,-3.11339 19.4991,-7.00411 22.6105,-7.00411 0.9865,0 -1.6867,3.32819 -6.6999,8.34142 -6.7012,6.701184 -9.1316,9.994864 -12.3601,16.750004 -4.9914,10.44415 -6.5747,20.09714 -5.0544,30.81657 1.6761,11.81776 2.842,11.5569 2.2702,-0.50791 -0.6237,-13.15818 0.5121,-19.24385 5.4633,-29.27357 4.3394,-8.79047 14.902,-20.101874 23.5296,-25.197614 7.9491,-4.69508 7.5115,-5.7319 -2,-4.73863 -21.315,2.22588 -41.7551,11.88801 -58.434,27.622074 -24.9859,23.57047 -34.2863,58.43679 -24.1482,90.52953 7.178,22.72262 13.9497,32.21716 46.8646,65.70845 20.4482,20.80624 27.5307,28.70935 32.737,36.52983 15.2212,22.864 21.8599,46.36072 20.4336,72.32217 -0.4426,8.05717 -0.323,9.99837 0.4989,8.09768 0.5999,-1.38753 1.1058,-8.95233 1.1368,-17 z m -204.4409,0.64287 c -8.999696,-18.75582 -8.596096,-36.31404 1.2904,-56.14287 4.3932,-8.81108 6.5757,-12.02426 18.679,-27.5 13.4604,-17.21093 17.9644,-28.51793 16.817,-42.21824 -0.7417,-8.85748 -3.6372,-15.12601 -9.9457,-21.53176 -6.6067,-6.70865 -8.5478,-6.8916 -2.3047,-0.21723 7.4837,8.0006 9.0667,12.44915 9.0629,25.46723 0,10.69178 -0.1091,11.2169 -3.7832,18.74093 -2.079,4.25751 -6.1058,10.78251 -8.9485,14.5 -14.6006,19.0938 -18.1731,24.29915 -22.2069,32.35697 -8.403096,16.7861 -9.621596,32.19552 -3.8272,48.4021 2.5306,7.07825 7.5188,16.5 8.7355,16.5 0.2428,0 -1.3631,-3.76071 -3.5686,-8.35713 z m 197.7787,-1.94099 c -1.6791,-19.86402 -14.4873,-43.6146 -30.1106,-55.8351 -5.9821,-4.67918 -16.9044,-11.57656 -34.2552,-21.63207 -13.397,-7.76411 -24.8148,-17.27399 -29.8532,-24.86456 -8.2143,-12.37547 -12.4727,-32.42951 -10.4467,-49.19743 0.5763,-4.77 1.9525,-12.21733 3.0583,-16.54962 2.0476,-8.02268 2.093,-10.92983 0.092,-5.90516 -4.5697,11.47615 -6.4272,21.02333 -6.4752,33.28206 -0.08,20.44408 5.0637,34.46703 17.4117,47.46623 8.0494,8.47394 16.2572,14.3246 34.402,24.52223 17.2832,9.71338 23.6436,14.11803 30.979,21.45349 13.0916,13.09157 21.7824,30.79427 24.0575,49.00385 1.0119,8.09829 1.8621,6.79765 1.1401,-1.74392 z m -26.5662,-109.9823 c -5.1128,-10.17727 -10.6556,-27.10886 -12.6904,-38.76561 -1.2273,-7.03034 -1.5037,-12.65849 -1.0782,-21.95397 1.5557,-33.9876 14.9016,-60.65578 41.7717,-83.46955 16.7816,-14.24825 30.0242,-28.265344 34.1267,-36.122654 9.8579,-18.88028 8.8011,-37.87067 -3.0823,-55.38463 -1.6706,-2.46226 -2.8969,-4.61746 -2.725,-4.78934 0.1719,-0.17187 3.3241,0.82107 7.005,2.20655 24.106,9.07346 39.9651,24.76061 47.8851,47.36571 2.7179,7.75739 3.0531,9.98656 3.1115,20.69391 0.077,14.033604 -1.8706,21.198974 -8.6123,31.690444 -3.2813,5.1064 -3.5519,5.84384 -1.4191,3.86724 4.2571,-3.94536 8.2731,-10.99476 11.1319,-19.53987 2.3946,-7.157864 2.6244,-9.068364 2.2246,-18.500004 -1.3763,-32.47405 -23.5561,-59.62484 -57.1149,-69.91562 -6.7116,-2.05813 -12.6446,-2.74125 -12.6446,-1.45589 0,0.35546 2.0514,2.83947 4.5588,5.52001 2.5073,2.68055 6.2117,8.35222 8.232,12.60371 3.3326,7.0129 3.7083,8.66882 4.0499,17.85042 0.4444,11.94636 -1.0413,18.20185 -6.5594,27.61783 -4.7782,8.15331 -9.87,13.52785 -26.2934,27.753404 -20.7351,17.9603 -30.0535,29.43482 -38.6624,47.60837 -2.4348,5.1399 -5.6057,13.74507 -7.0465,19.12261 -2.3451,8.75274 -2.628,11.66364 -2.6993,27.77735 -0.078,17.56557 0.001,18.27755 3.264,29.5 3.2577,11.20402 8.6655,24.07189 13.7963,32.82851 4.0212,6.86275 3.6895,4.28961 -0.5297,-4.10893 z m -146.1103,-19.24192 c 0,-0.28729 -1.8945,-2.57756 -4.2099,-5.0895 -7.3216,-7.94295 -19.1189,-12.4001 -32.750196,-12.37338 -8.9558,0.0176 -15.8782,1.53885 -34.2278,7.52206 -10.601,3.45663 -15.1811,4.46316 -20.309,4.46316 -4.1595,0 -6.3914,0.37179 -6.0031,1 0.3399,0.55 3.7606,1 7.6016,1 5.4157,0 9.7241,-0.88953 19.1909,-3.96218 17.2712,-5.60571 24.0007,-7.00617 33.7474,-7.02304 13.918796,-0.0241 25.938096,4.13837 32.906196,11.39593 3.4442,3.58717 4.0539,4.04844 4.0539,3.06695 z m 15.0047,-16.94811 c -1.8374,-11.50145 -4.9574,-17.07423 -13.2124,-23.59949 -7.5093,-5.93569 -7.7926,-4.71578 -0.5388,2.31994 4.8747,4.72825 6.9675,7.65915 8.5951,12.03751 1.1832,3.18313 2.1514,6.69184 2.1514,7.79713 0,1.82988 -0.3396,1.7367 -3.7973,-1.04194 -3.7024,-2.97534 -14.9308,-7.64795 -15.9439,-6.6349 -0.2791,0.27911 2.0177,1.6242 5.1039,2.9891 7.1601,3.16653 12.039,6.89906 14.7485,11.28315 3.0812,4.98551 4.1958,3.00158 2.8935,-5.1505 z M 74.050934,204.53111 c 6.6529,-1.59836 12.5422,-5.13915 19.1994,-11.54317 6.0015,-5.77329 6.2891,-7.39294 0.6308,-3.55318 -3.0601,2.07671 -4.9453,2.54943 -10.1669,2.54943 -8.2952,0 -11.5634,1.76766 -15.2935,8.2716 -3.4589,6.03118 -3.7012,7.2219 -1.2672,6.22718 0.9625,-0.39335 4.0663,-1.27169 6.8974,-1.95186 z m -2.6252,-3.27787 c 0.012,-0.42298 0.8084,-1.79045 1.7692,-3.03883 1.2769,-1.65905 3.1966,-2.44147 7.1343,-2.90784 3.9938,-0.473 5.2,-0.33485 4.663,0.53408 -1.5005,2.42789 -13.62,7.26317 -13.5665,5.41259 z M 142.00163,180.7594 c 1.39,-3.08787 1.9019,-6.519 1.9019,-12.75 0,-7.51398 -0.379,-9.32521 -3.1949,-15.26962 -3.7773,-7.97394 -5.8773,-10.85179 -17.8274,-24.42992 -4.9623,-5.63831 -10.284,-12.74316 -11.826,-15.78857 -1.5421,-3.0454 -3.212,-5.5371 -3.7109,-5.5371 -2.3696,0 -8.227496,15.37358 -9.880996,25.93175 -1.1949,7.62966 0.1234,23.03331 2.616096,30.56825 2.0644,6.24007 2.9505,4.25665 1.2414,-2.77862 -2.742296,-11.28832 -1.0146,-30.41942 3.89,-43.07511 l 1.881,-4.85373 2.7417,4.67825 c 1.5079,2.57304 5.9074,8.13222 9.7766,12.35373 9.5445,10.41347 14.3979,17.10595 18.0228,24.85206 4.4403,9.48865 4.8953,19.71065 1.272,28.57342 -1.5436,3.77585 1.3092,1.49593 3.0967,-2.47479 z m -17.1602,-6.77521 c 2.9267,-5.02339 2.6382,-16.12732 -0.6656,-25.61421 -2.7595,-7.92415 -14.5344,-27.63176 -16.1814,-27.08277 -0.5808,0.19361 -1.8873,3.01714 -2.9033,6.2745 -1.5343,4.91921 -1.7708,8.20939 -1.3963,19.42248 0.6545,19.59763 2.2537,21.567 2.2288,2.74477 -0.013,-9.80553 0.4505,-16.80154 1.2989,-19.60798 l 1.319,-4.36322 4.551,7.31289 c 6.4283,10.32962 9.4284,18.83894 10.0178,28.41354 0.5134,8.34111 -0.7477,13.98202 -2.963,13.25354 -2.2146,-0.72826 -5.3932,-7.65052 -7.254,-15.79785 -0.9993,-4.37563 -2.202,-7.95569 -2.6725,-7.95569 -0.4705,0 -0.6321,1.0125 -0.3592,2.25 0.2729,1.2375 0.9932,5.15589 1.6007,8.70753 2.4663,14.4203 8.7162,20.04577 13.3791,12.04247 z"
       id="path1" />
  </g>
</svg>
